<svg width="109" height="23" viewBox="0 0 109 23" fill="none" xmlns="http://www.w3.org/2000/svg">
<g clip-path="url(#clip0_1014_1984)">
<path d="M102.941 0.776245C106.157 0.776245 108.774 3.40724 108.774 6.64136V22.7771H106.83V6.64136C106.83 4.47997 105.09 2.73242 102.941 2.73242H6.60354C4.45458 2.73242 2.71257 4.47997 2.71257 6.64136V22.7771H0.769531L0.771417 6.64136C0.771417 3.40724 3.38652 0.776245 6.60354 0.776245H102.941ZM22.2351 10.9305C22.3732 10.9305 22.4708 11.0158 22.4708 11.1964V17.0801C22.4708 17.2466 22.5372 17.3293 22.7341 17.3293H25.27C25.4356 17.3293 25.5461 17.2466 25.5461 17.0801V11.1964C25.5461 11.0158 25.6162 10.9305 25.7799 10.9305H27.1685C27.3194 10.9305 27.4171 11.0158 27.4171 11.1964V20.0768C27.4171 20.299 27.3473 20.5084 27.2515 20.7167L26.3086 22.2643C26.2257 22.407 26.1023 22.4881 25.9624 22.4881H25.7799C25.6162 22.4881 25.5461 22.3914 25.5461 22.2382V18.3072C25.5461 18.1396 25.4503 18.0709 25.2975 18.1115L22.6349 18.8648C22.5097 18.8914 22.3585 18.8914 22.2351 18.8914C21.1671 18.8914 20.6127 18.0265 20.6127 17.2872V11.1964C20.6127 11.0158 20.6809 10.9305 20.8484 10.9305H22.2351ZM98.3519 7.54184C98.5193 7.54184 98.5876 7.65488 98.5876 7.80964V18.5441C98.5876 18.6951 98.5193 18.7516 98.3519 18.7516H96.9376C96.7996 18.7516 96.7313 18.6951 96.7313 18.5301V18.3071C96.7313 18.1265 96.6483 18.0552 96.4681 18.1117L93.7923 18.8339C93.6391 18.8764 93.5139 18.8764 93.3774 18.8764C92.6544 18.906 91.7681 18.2369 91.7681 17.2764V13.7609C91.7681 13.0071 92.0872 12.4355 92.7536 12.0736L94.2211 11.2084C94.5269 11.0157 94.8309 10.9307 95.1918 10.9307H96.4681C96.6483 10.9307 96.7313 10.8621 96.7313 10.6925V7.80964C96.7313 7.65488 96.7996 7.54184 96.9376 7.54184H98.3519ZM84.2971 10.9307C84.448 10.9307 84.531 11.0157 84.531 11.1962V18.5441C84.531 18.6951 84.448 18.7516 84.2971 18.7516H82.881C82.7301 18.7516 82.6747 18.6951 82.6747 18.5301V18.3071C82.6747 18.1265 82.577 18.0552 82.3967 18.1117L79.7337 18.8339C79.5829 18.8764 79.4577 18.8764 79.3211 18.8764C78.4465 18.8764 77.7119 18.1679 77.7119 17.2764V13.7609C77.7119 13.0071 78.0321 12.4355 78.6823 12.0736L80.1648 11.2084C80.4703 11.0157 80.7743 10.9307 81.1186 10.9307H84.2971ZM61.3054 10.9307C61.4582 10.9307 61.5412 11.0157 61.5412 11.1962V18.5441C61.5412 18.6951 61.4582 18.7516 61.3054 18.7516H59.8893C59.7384 18.7516 59.6849 18.6951 59.6849 18.5301V18.3071C59.6849 18.1265 59.5853 18.0552 59.4069 18.1117L56.7458 18.8339C56.5931 18.8764 56.4678 18.8764 56.3298 18.8764C55.4567 18.8764 54.722 18.1679 54.722 17.2764V13.7609C54.722 13.0071 55.0407 12.4355 55.6906 12.0736L57.1769 11.2084C57.4786 11.0157 57.7826 10.9307 58.1307 10.9307H61.3054ZM30.9126 10.9305C31.0378 10.9305 31.1336 11.0158 31.1336 11.1964V17.0801C31.1336 17.2466 31.2162 17.3171 31.4101 17.3171H33.9475C34.1134 17.3171 34.2239 17.2466 34.2239 17.0801V11.1964C34.2239 11.0158 34.279 10.9305 34.4446 10.9305H35.8332C35.9841 10.9305 36.0817 11.0158 36.0817 11.1964V18.5443C36.0817 18.6948 35.9841 18.7517 35.8332 18.7517H34.4446C34.279 18.7517 34.2239 18.6948 34.2239 18.5302V18.3072C34.2239 18.1266 34.1134 18.0553 33.9622 18.1114L31.2996 18.8341C31.1597 18.8765 31.0062 18.8765 30.8685 18.8765C30.0214 18.8765 29.2751 18.1801 29.2751 17.2762V11.1964C29.2751 11.0158 29.3433 10.9305 29.5108 10.9305H30.9126ZM52.9063 7.54184C53.0738 7.54184 53.142 7.65488 53.142 7.80964V18.5441C53.142 18.6951 53.0738 18.7516 52.9063 18.7516H51.492C51.3559 18.7516 51.2857 18.6951 51.2857 18.5301V18.3071C51.2857 18.1265 51.2024 18.0552 51.0221 18.1117L48.3463 18.8339C48.1954 18.8764 48.0702 18.8764 47.9303 18.8764C47.2084 18.906 46.3244 18.2369 46.3244 17.2764V13.7609C46.3244 13.0071 46.6412 12.4355 47.3076 12.0736L48.7755 11.2084C49.081 11.0157 49.3868 10.9307 49.7459 10.9307H51.0221C51.2024 10.9307 51.2857 10.8621 51.2857 10.6925V7.80964C51.2857 7.65488 51.3559 7.54184 51.492 7.54184H52.9063ZM12.2263 8.50623C12.3775 8.50623 12.4771 8.58854 12.4771 8.74331V12.5335C12.4771 12.7145 12.5725 12.8002 12.7385 12.8002H16.5227C16.7015 12.8002 16.8286 12.7145 16.8286 12.5335V8.74331C16.8286 8.58854 16.8836 8.50623 17.0496 8.50623H18.4914C18.657 8.50623 18.7565 8.58854 18.7565 8.74331V18.5443C18.7565 18.6949 18.657 18.7518 18.4914 18.7518H17.0496C16.8836 18.7518 16.8286 18.6949 16.8286 18.5303V14.5838C16.8286 14.4036 16.7015 14.3053 16.5227 14.3053H12.7385C12.5725 14.3053 12.4771 14.4036 12.4771 14.5838V18.5303C12.4771 18.6949 12.3775 18.7518 12.2263 18.7518H10.757C10.617 18.7518 10.5631 18.6949 10.5631 18.5443V8.74331C10.5631 8.58854 10.617 8.50623 10.757 8.50623H12.2263ZM43.1237 10.8055C44.0372 10.8055 44.7443 11.5725 44.7443 12.4355V18.5441C44.7443 18.6951 44.6447 18.7516 44.4958 18.7516H43.109C42.9435 18.7516 42.888 18.6951 42.888 18.5301V12.6467C42.888 12.4651 42.7756 12.3668 42.6101 12.3668H40.0742C39.8792 12.3668 39.7962 12.4651 39.7962 12.6467V18.5301C39.7962 18.6951 39.6966 18.7516 39.5752 18.7516H38.1719C38.0082 18.7516 37.9399 18.6951 37.9399 18.5441V11.1962C37.9399 11.0157 38.0082 10.9307 38.1719 10.9307H39.5752C39.6966 10.9307 39.7962 11.0157 39.7962 11.1962V11.4333C39.7962 11.5843 39.8641 11.6567 40.0742 11.6002L42.7206 10.8742C42.8586 10.8472 42.9819 10.8055 43.1237 10.8055ZM65.0216 10.9305C65.1577 10.9305 65.2573 11.0158 65.2573 11.1964V18.5443C65.2573 18.6949 65.1577 18.7518 65.0216 18.7518H63.6329C63.4527 18.7518 63.3972 18.6949 63.3972 18.5443V11.1964C63.3972 11.0158 63.4527 10.9305 63.6329 10.9305H65.0216ZM76.1724 8.50616C76.3361 8.50616 76.4191 8.58847 76.4191 8.75803V9.77386C76.4191 9.92862 76.3361 9.99614 76.1724 9.99614H71.3605C71.1945 9.99614 71.1244 10.0932 71.1244 10.2749V16.9973C71.1244 17.1783 71.1945 17.2602 71.3605 17.2602H76.3104C76.4632 17.2602 76.5609 17.3292 76.5609 17.4715C76.5609 17.6228 76.4892 17.7492 76.3361 17.8337L75.1466 18.4998C74.826 18.6831 74.4945 18.7517 74.1615 18.7517H71.1689C70.1815 18.7517 69.1429 18.0412 69.1429 16.7455V11.4603C69.1429 10.6816 69.4744 10.0796 70.1559 9.67675L71.7764 8.76903C72.0691 8.58847 72.4153 8.50616 72.734 8.50616H76.1724ZM91.2414 10.8471C91.3923 10.8471 91.4918 10.9305 91.4918 11.0834V12.1576C91.4918 12.2965 91.3923 12.367 91.2414 12.367H88.5105C88.3299 12.367 88.2601 12.4653 88.2601 12.6466V18.5303C88.2601 18.6949 88.1496 18.7518 88.0112 18.7518H86.612C86.4442 18.7518 86.3891 18.6949 86.3891 18.5443V11.1964C86.3891 11.0159 86.4442 10.9305 86.612 10.9305H88.0112C88.1496 10.9305 88.2601 11.0159 88.2601 11.1964V11.4195C88.2601 11.5723 88.3299 11.641 88.5105 11.641C88.5509 11.641 88.6063 11.641 88.6614 11.6148L89.4643 11.0834C89.757 10.9305 90.0629 10.8471 90.4238 10.8471H91.2414ZM51.0097 12.3668H48.4458C48.2505 12.3668 48.1807 12.4651 48.1807 12.6608V17.08C48.1807 17.2465 48.2505 17.317 48.4458 17.317H51.0097C51.2024 17.317 51.2857 17.2465 51.2857 17.08V12.6608C51.2857 12.4651 51.2024 12.3668 51.0097 12.3668ZM59.4069 12.3668H56.8416C56.6481 12.3668 56.5783 12.4651 56.5783 12.6608V17.08C56.5783 17.2465 56.6481 17.317 56.8416 17.317H59.4069C59.5853 17.317 59.6849 17.2465 59.6849 17.08V12.6608C59.6849 12.4651 59.5853 12.3668 59.4069 12.3668ZM82.3967 12.3668H79.8333C79.6379 12.3668 79.5682 12.4651 79.5682 12.6608V17.08C79.5682 17.2465 79.6379 17.317 79.8333 17.317H82.3967C82.577 17.317 82.6747 17.2465 82.6747 17.08V12.6608C82.6747 12.4651 82.577 12.3668 82.3967 12.3668ZM96.4534 12.3668H93.8895C93.6965 12.3668 93.6244 12.4651 93.6244 12.6608V17.08C93.6244 17.2465 93.6965 17.317 93.8895 17.317H96.4534C96.6484 17.317 96.7313 17.2465 96.7313 17.08V12.6608C96.7313 12.4651 96.6484 12.3668 96.4534 12.3668ZM65.0216 7.54199C65.1577 7.54199 65.2573 7.65503 65.2573 7.80979V8.95042C65.2573 9.11922 65.1577 9.17574 65.0216 9.17574H63.6329C63.4527 9.17574 63.3972 9.11922 63.3972 8.95042V7.80979C63.3972 7.65503 63.4527 7.54199 63.6329 7.54199H65.0216Z" fill="black"/>
<mask id="mask0_1014_1984" style="mask-type:luminance" maskUnits="userSpaceOnUse" x="0" y="0" width="109" height="23">
<path d="M102.941 0.776245C106.157 0.776245 108.774 3.40724 108.774 6.64136V22.7771H106.83V6.64136C106.83 4.47997 105.09 2.73242 102.941 2.73242H6.60354C4.45458 2.73242 2.71257 4.47997 2.71257 6.64136V22.7771H0.769531L0.771417 6.64136C0.771417 3.40724 3.38652 0.776245 6.60354 0.776245H102.941ZM22.2351 10.9305C22.3732 10.9305 22.4708 11.0158 22.4708 11.1964V17.0801C22.4708 17.2466 22.5372 17.3293 22.7341 17.3293H25.27C25.4356 17.3293 25.5461 17.2466 25.5461 17.0801V11.1964C25.5461 11.0158 25.6162 10.9305 25.7799 10.9305H27.1685C27.3194 10.9305 27.4171 11.0158 27.4171 11.1964V20.0768C27.4171 20.299 27.3473 20.5084 27.2515 20.7167L26.3086 22.2643C26.2257 22.407 26.1023 22.4881 25.9624 22.4881H25.7799C25.6162 22.4881 25.5461 22.3914 25.5461 22.2382V18.3072C25.5461 18.1396 25.4503 18.0709 25.2975 18.1115L22.6349 18.8648C22.5097 18.8914 22.3585 18.8914 22.2351 18.8914C21.1671 18.8914 20.6127 18.0265 20.6127 17.2872V11.1964C20.6127 11.0158 20.6809 10.9305 20.8484 10.9305H22.2351ZM98.3519 7.54184C98.5193 7.54184 98.5876 7.65488 98.5876 7.80964V18.5441C98.5876 18.6951 98.5193 18.7516 98.3519 18.7516H96.9376C96.7996 18.7516 96.7313 18.6951 96.7313 18.5301V18.3071C96.7313 18.1265 96.6483 18.0552 96.4681 18.1117L93.7923 18.8339C93.6391 18.8764 93.5139 18.8764 93.3774 18.8764C92.6544 18.906 91.7681 18.2369 91.7681 17.2764V13.7609C91.7681 13.0071 92.0872 12.4355 92.7536 12.0736L94.2211 11.2084C94.5269 11.0157 94.8309 10.9307 95.1918 10.9307H96.4681C96.6483 10.9307 96.7313 10.8621 96.7313 10.6925V7.80964C96.7313 7.65488 96.7996 7.54184 96.9376 7.54184H98.3519ZM84.2971 10.9307C84.448 10.9307 84.531 11.0157 84.531 11.1962V18.5441C84.531 18.6951 84.448 18.7516 84.2971 18.7516H82.881C82.7301 18.7516 82.6747 18.6951 82.6747 18.5301V18.3071C82.6747 18.1265 82.577 18.0552 82.3967 18.1117L79.7337 18.8339C79.5829 18.8764 79.4577 18.8764 79.3211 18.8764C78.4465 18.8764 77.7119 18.1679 77.7119 17.2764V13.7609C77.7119 13.0071 78.0321 12.4355 78.6823 12.0736L80.1648 11.2084C80.4703 11.0157 80.7743 10.9307 81.1186 10.9307H84.2971ZM61.3054 10.9307C61.4582 10.9307 61.5412 11.0157 61.5412 11.1962V18.5441C61.5412 18.6951 61.4582 18.7516 61.3054 18.7516H59.8893C59.7384 18.7516 59.6849 18.6951 59.6849 18.5301V18.3071C59.6849 18.1265 59.5853 18.0552 59.4069 18.1117L56.7458 18.8339C56.5931 18.8764 56.4678 18.8764 56.3298 18.8764C55.4567 18.8764 54.722 18.1679 54.722 17.2764V13.7609C54.722 13.0071 55.0407 12.4355 55.6906 12.0736L57.1769 11.2084C57.4786 11.0157 57.7826 10.9307 58.1307 10.9307H61.3054ZM30.9126 10.9305C31.0378 10.9305 31.1336 11.0158 31.1336 11.1964V17.0801C31.1336 17.2466 31.2162 17.3171 31.4101 17.3171H33.9475C34.1134 17.3171 34.2239 17.2466 34.2239 17.0801V11.1964C34.2239 11.0158 34.279 10.9305 34.4446 10.9305H35.8332C35.9841 10.9305 36.0817 11.0158 36.0817 11.1964V18.5443C36.0817 18.6948 35.9841 18.7517 35.8332 18.7517H34.4446C34.279 18.7517 34.2239 18.6948 34.2239 18.5302V18.3072C34.2239 18.1266 34.1134 18.0553 33.9622 18.1114L31.2996 18.8341C31.1597 18.8765 31.0062 18.8765 30.8685 18.8765C30.0214 18.8765 29.2751 18.1801 29.2751 17.2762V11.1964C29.2751 11.0158 29.3433 10.9305 29.5108 10.9305H30.9126ZM52.9063 7.54184C53.0738 7.54184 53.142 7.65488 53.142 7.80964V18.5441C53.142 18.6951 53.0738 18.7516 52.9063 18.7516H51.492C51.3559 18.7516 51.2857 18.6951 51.2857 18.5301V18.3071C51.2857 18.1265 51.2024 18.0552 51.0221 18.1117L48.3463 18.8339C48.1954 18.8764 48.0702 18.8764 47.9303 18.8764C47.2084 18.906 46.3244 18.2369 46.3244 17.2764V13.7609C46.3244 13.0071 46.6412 12.4355 47.3076 12.0736L48.7755 11.2084C49.081 11.0157 49.3868 10.9307 49.7459 10.9307H51.0221C51.2024 10.9307 51.2857 10.8621 51.2857 10.6925V7.80964C51.2857 7.65488 51.3559 7.54184 51.492 7.54184H52.9063ZM12.2263 8.50623C12.3775 8.50623 12.4771 8.58854 12.4771 8.74331V12.5335C12.4771 12.7145 12.5725 12.8002 12.7385 12.8002H16.5227C16.7015 12.8002 16.8286 12.7145 16.8286 12.5335V8.74331C16.8286 8.58854 16.8836 8.50623 17.0496 8.50623H18.4914C18.657 8.50623 18.7565 8.58854 18.7565 8.74331V18.5443C18.7565 18.6949 18.657 18.7518 18.4914 18.7518H17.0496C16.8836 18.7518 16.8286 18.6949 16.8286 18.5303V14.5838C16.8286 14.4036 16.7015 14.3053 16.5227 14.3053H12.7385C12.5725 14.3053 12.4771 14.4036 12.4771 14.5838V18.5303C12.4771 18.6949 12.3775 18.7518 12.2263 18.7518H10.757C10.617 18.7518 10.5631 18.6949 10.5631 18.5443V8.74331C10.5631 8.58854 10.617 8.50623 10.757 8.50623H12.2263ZM43.1237 10.8055C44.0372 10.8055 44.7443 11.5725 44.7443 12.4355V18.5441C44.7443 18.6951 44.6447 18.7516 44.4958 18.7516H43.109C42.9435 18.7516 42.888 18.6951 42.888 18.5301V12.6467C42.888 12.4651 42.7756 12.3668 42.6101 12.3668H40.0742C39.8792 12.3668 39.7962 12.4651 39.7962 12.6467V18.5301C39.7962 18.6951 39.6966 18.7516 39.5752 18.7516H38.1719C38.0082 18.7516 37.9399 18.6951 37.9399 18.5441V11.1962C37.9399 11.0157 38.0082 10.9307 38.1719 10.9307H39.5752C39.6966 10.9307 39.7962 11.0157 39.7962 11.1962V11.4333C39.7962 11.5843 39.8641 11.6567 40.0742 11.6002L42.7206 10.8742C42.8586 10.8472 42.9819 10.8055 43.1237 10.8055ZM65.0216 10.9305C65.1577 10.9305 65.2573 11.0158 65.2573 11.1964V18.5443C65.2573 18.6949 65.1577 18.7518 65.0216 18.7518H63.6329C63.4527 18.7518 63.3972 18.6949 63.3972 18.5443V11.1964C63.3972 11.0158 63.4527 10.9305 63.6329 10.9305H65.0216ZM76.1724 8.50616C76.3361 8.50616 76.4191 8.58847 76.4191 8.75803V9.77386C76.4191 9.92862 76.3361 9.99614 76.1724 9.99614H71.3605C71.1945 9.99614 71.1244 10.0932 71.1244 10.2749V16.9973C71.1244 17.1783 71.1945 17.2602 71.3605 17.2602H76.3104C76.4632 17.2602 76.5609 17.3292 76.5609 17.4715C76.5609 17.6228 76.4892 17.7492 76.3361 17.8337L75.1466 18.4998C74.826 18.6831 74.4945 18.7517 74.1615 18.7517H71.1689C70.1815 18.7517 69.1429 18.0412 69.1429 16.7455V11.4603C69.1429 10.6816 69.4744 10.0796 70.1559 9.67675L71.7764 8.76903C72.0691 8.58847 72.4153 8.50616 72.734 8.50616H76.1724ZM91.2414 10.8471C91.3923 10.8471 91.4918 10.9305 91.4918 11.0834V12.1576C91.4918 12.2965 91.3923 12.367 91.2414 12.367H88.5105C88.3299 12.367 88.2601 12.4653 88.2601 12.6466V18.5303C88.2601 18.6949 88.1496 18.7518 88.0112 18.7518H86.612C86.4442 18.7518 86.3891 18.6949 86.3891 18.5443V11.1964C86.3891 11.0159 86.4442 10.9305 86.612 10.9305H88.0112C88.1496 10.9305 88.2601 11.0159 88.2601 11.1964V11.4195C88.2601 11.5723 88.3299 11.641 88.5105 11.641C88.5509 11.641 88.6063 11.641 88.6614 11.6148L89.4643 11.0834C89.757 10.9305 90.0629 10.8471 90.4238 10.8471H91.2414ZM51.0097 12.3668H48.4458C48.2505 12.3668 48.1807 12.4651 48.1807 12.6608V17.08C48.1807 17.2465 48.2505 17.317 48.4458 17.317H51.0097C51.2024 17.317 51.2857 17.2465 51.2857 17.08V12.6608C51.2857 12.4651 51.2024 12.3668 51.0097 12.3668ZM59.4069 12.3668H56.8416C56.6481 12.3668 56.5783 12.4651 56.5783 12.6608V17.08C56.5783 17.2465 56.6481 17.317 56.8416 17.317H59.4069C59.5853 17.317 59.6849 17.2465 59.6849 17.08V12.6608C59.6849 12.4651 59.5853 12.3668 59.4069 12.3668ZM82.3967 12.3668H79.8333C79.6379 12.3668 79.5682 12.4651 79.5682 12.6608V17.08C79.5682 17.2465 79.6379 17.317 79.8333 17.317H82.3967C82.577 17.317 82.6747 17.2465 82.6747 17.08V12.6608C82.6747 12.4651 82.577 12.3668 82.3967 12.3668ZM96.4534 12.3668H93.8895C93.6965 12.3668 93.6244 12.4651 93.6244 12.6608V17.08C93.6244 17.2465 93.6965 17.317 93.8895 17.317H96.4534C96.6484 17.317 96.7313 17.2465 96.7313 17.08V12.6608C96.7313 12.4651 96.6484 12.3668 96.4534 12.3668ZM65.0216 7.54199C65.1577 7.54199 65.2573 7.65503 65.2573 7.80979V8.95042C65.2573 9.11922 65.1577 9.17574 65.0216 9.17574H63.6329C63.4527 9.17574 63.3972 9.11922 63.3972 8.95042V7.80979C63.3972 7.65503 63.4527 7.54199 63.6329 7.54199H65.0216Z" fill="white"/>
</mask>
<g mask="url(#mask0_1014_1984)">
<path fill-rule="evenodd" clip-rule="evenodd" d="M0.769531 0.776245H59.7287H108.774V22.7771H0.769531V0.776245Z" fill="black"/>
</g>
</g>
<defs>
<clipPath id="clip0_1014_1984">
<rect width="108.004" height="22.0008" fill="white" transform="translate(0.769531 0.776245)"/>
</clipPath>
</defs>
</svg>
