<svg width="448" height="216" viewBox="0 0 448 216" fill="none" xmlns="http://www.w3.org/2000/svg">
<rect width="448" height="216" rx="12" fill="url(#paint0_linear_135_1541)"/>
<path d="M32.548 95V74.28H37.14L40.668 83.968C41.116 85.284 41.508 86.628 41.928 87.972H42.068C42.516 86.628 42.88 85.284 43.328 83.968L46.772 74.28H51.364V95H47.584V86.348C47.584 84.416 47.864 81.476 48.088 79.544H47.976L46.296 84.416L43.104 93.124H40.724L37.504 84.416L35.852 79.544H35.74C35.964 81.476 36.272 84.416 36.272 86.348V95H32.548ZM74.9142 91.528H84.7982V94.496H61.4462V91.528H71.2182V86.936H63.4062V83.996H66.7662V76.688H63.2662V73.748H82.8662V76.688H79.3662V83.996H82.7822V86.936H74.9142V91.528ZM70.4342 76.688V83.996H75.6982V76.688H70.4342ZM108.624 71.648V90.156H104.9V71.648H108.624ZM101.596 79.824C101.596 83.576 98.544 86.348 94.596 86.348C90.648 86.348 87.568 83.576 87.568 79.824C87.568 76.016 90.648 73.272 94.596 73.272C98.544 73.272 101.596 76.016 101.596 79.824ZM91.18 79.824C91.18 81.952 92.692 83.156 94.596 83.156C96.528 83.156 97.984 81.952 97.984 79.824C97.984 77.696 96.528 76.464 94.596 76.464C92.692 76.464 91.18 77.696 91.18 79.824ZM95.156 94.02H109.268V96.96H91.46V88.336H95.156V94.02ZM133.822 84.92V87.832H115.706V73.496H133.626V76.464H119.458V79.18H133.038V82.036H119.458V84.92H133.822ZM112.962 91.444H136.314V94.44H112.962V91.444ZM49.152 106.62H52.848V132.492H49.152V118.492H42.852V115.524H49.152V106.62ZM36.104 111.856V123.224C39.772 123.224 42.488 123.028 45.4 122.496L45.764 125.492C42.264 126.164 39.212 126.248 34.508 126.248H32.408V108.916H44.084V111.856H36.104ZM83.6056 111.996H87.0216V115.02H83.6056V119.416H79.9096V106.62H83.6056V111.996ZM76.3536 108.188V118.996H64.0616V108.188H76.3536ZM72.7136 116.112V111.072H67.6736V116.112H72.7136ZM81.0576 120.06V121.88H85.6776V124.512H72.7696V121.88H77.4736V120.06H81.0576ZM69.1576 121.628V128.74C70.5296 128.628 71.8456 128.404 73.1616 127.984L73.6656 130.896C71.5376 131.652 69.5496 131.764 67.0016 131.764H65.5736V121.628H69.1576ZM79.2096 125.156C82.1496 125.156 84.1936 126.556 84.1936 128.796C84.1936 131.036 82.1496 132.436 79.2096 132.436C76.2696 132.436 74.2256 131.036 74.2256 128.796C74.2256 126.556 76.2696 125.156 79.2096 125.156ZM79.2096 129.944C80.2176 129.944 80.9176 129.552 80.9176 128.796C80.9176 128.012 80.2176 127.648 79.2096 127.648C78.2296 127.648 77.5016 128.012 77.5016 128.796C77.5016 129.552 78.2296 129.944 79.2096 129.944ZM106.731 106.592H110.427V132.464H106.731V106.592ZM96.5674 108.412C100.459 108.412 103.343 111.94 103.343 117.596C103.343 123.28 100.459 126.836 96.5674 126.836C92.6754 126.836 89.7914 123.28 89.7914 117.596C89.7914 111.94 92.6754 108.412 96.5674 108.412ZM96.5674 111.744C94.6634 111.744 93.3474 113.76 93.3474 117.596C93.3474 121.432 94.6634 123.476 96.5674 123.476C98.4714 123.476 99.7874 121.432 99.7874 117.596C99.7874 113.76 98.4714 111.744 96.5674 111.744ZM139.029 106.648H142.725V121.964H139.029V115.748H135.221V112.78H139.029V106.648ZM136.705 118.38L134.913 121.264C132.085 120.34 130.153 118.548 129.061 116.196C127.913 118.772 125.925 120.788 122.901 121.768L121.025 118.856C125.197 117.428 127.017 114.208 127.101 110.988H122.033V108.048H135.893V110.988H130.881C130.965 113.928 132.729 117.036 136.705 118.38ZM125.141 126.052V123.112H142.725V132.436H139.029V126.052H125.141ZM164.619 106.62H168.343V121.012H164.619V106.62ZM162.491 116.896L162.911 119.836C159.075 120.508 155.631 120.564 150.507 120.564H148.239V112.724H156.443V110.736H148.211V107.796H160.083V115.468H151.879V117.596C156.135 117.596 159.159 117.484 162.491 116.896ZM164.675 124.26V122.076H168.343V132.1H151.179V122.076H154.847V124.26H164.675ZM164.675 129.16V127.088H154.847V129.16H164.675ZM196.621 116.7V119.752H192.925V132.408H189.229V106.62H192.925V116.7H196.621ZM181.949 107.068V110.428H187.549V113.368H172.541V110.428H178.253V107.068H181.949ZM180.129 114.824C183.853 114.824 186.625 117.372 186.625 120.956C186.625 124.624 183.853 127.144 180.129 127.144C176.377 127.144 173.577 124.624 173.577 120.956C173.577 117.372 176.377 114.824 180.129 114.824ZM180.129 124.12C181.921 124.12 183.125 122.972 183.125 120.956C183.125 119.024 181.921 117.82 180.129 117.82C178.337 117.82 177.105 118.968 177.105 120.984C177.105 123 178.337 124.12 180.129 124.12ZM218.514 123.644L214.818 123.224C215.798 118.38 215.854 114.768 215.854 111.772H200.818V108.832H219.55V111.296C219.55 114.516 219.55 118.184 218.514 123.644ZM210.394 126.332H221.79V129.3H198.466V126.332H206.698V117.456H210.394V126.332ZM49.152 141.62H52.848V167.492H49.152V153.492H42.852V150.524H49.152V141.62ZM36.104 146.856V158.224C39.772 158.224 42.488 158.028 45.4 157.496L45.764 160.492C42.264 161.164 39.212 161.248 34.508 161.248H32.408V143.916H44.084V146.856H36.104ZM83.6056 146.688H86.9936V149.684H83.6056V154.808H79.9096V141.62H83.6056V146.688ZM78.6776 151.756L76.9976 154.612C74.0856 153.828 72.0976 152.204 70.9496 150.076C69.8016 152.428 67.7856 154.304 64.6216 155.2L62.8576 152.316C66.8056 151.196 68.7376 148.48 68.9616 145.736H63.8656V142.768H77.7816V145.736H72.7696C72.9936 148.2 74.8696 150.72 78.6776 151.756ZM70.2776 162.704V164.356H84.3336V167.156H66.6096V160.1H79.9656V158.616H66.5816V155.844H83.6056V162.704H70.2776ZM119.347 151.532V154.612H115.595V167.408H111.899V141.62H115.595V151.532H119.347ZM104.899 143.608V147.36C104.899 152.008 106.719 156.712 110.863 158.728L108.623 161.64C105.935 160.268 104.143 157.86 103.051 154.696C101.931 157.972 99.9991 160.688 97.0871 162.116L94.8751 159.12C99.2151 157.104 101.175 152.148 101.175 147.36V143.608H104.899ZM139.169 153.856H144.461V156.768H121.165V153.856H126.401V150.748C124.469 149.88 123.489 148.62 123.489 146.968C123.489 143.888 127.129 142.012 132.813 142.012C138.525 142.012 142.165 143.888 142.165 146.968C142.165 148.648 141.073 149.908 139.169 150.776V153.856ZM132.813 144.812C129.313 144.812 127.297 145.512 127.297 146.968C127.297 148.396 129.313 149.096 132.813 149.096C136.425 149.096 138.357 148.396 138.357 146.968C138.357 145.512 136.425 144.812 132.813 144.812ZM130.097 151.7V153.856H135.473V151.728C134.661 151.812 133.793 151.868 132.813 151.868C131.833 151.868 130.937 151.812 130.097 151.7ZM132.757 158.056C138.329 158.056 141.717 159.736 141.717 162.732C141.717 165.756 138.329 167.436 132.757 167.436C127.185 167.436 123.825 165.756 123.825 162.732C123.825 159.736 127.185 158.056 132.757 158.056ZM132.757 164.636C136.229 164.636 137.965 163.992 137.965 162.732C137.965 161.416 136.257 160.856 132.757 160.856C129.257 160.856 127.549 161.416 127.549 162.732C127.549 163.992 129.285 164.636 132.757 164.636ZM170.863 151.7V154.752H167.167V167.408H163.471V141.62H167.167V151.7H170.863ZM156.191 142.068V145.428H161.791V148.368H146.783V145.428H152.495V142.068H156.191ZM154.371 149.824C158.095 149.824 160.867 152.372 160.867 155.956C160.867 159.624 158.095 162.144 154.371 162.144C150.619 162.144 147.819 159.624 147.819 155.956C147.819 152.372 150.619 149.824 154.371 149.824ZM154.371 159.12C156.163 159.12 157.367 157.972 157.367 155.956C157.367 154.024 156.163 152.82 154.371 152.82C152.579 152.82 151.347 153.968 151.347 155.984C151.347 158 152.579 159.12 154.371 159.12ZM193.457 148.592V151.532H175.565V142.544H179.261V148.592H193.457ZM172.681 154.164H196.033V157.132H172.681V154.164ZM179.037 159.176V163.908H193.597V166.876H175.313V159.176H179.037ZM222.646 141.62H226.342V155.76H222.646V150.468H218.054V155.004H205.874V142.936H209.542V146.184H214.442V142.936H218.054V147.5H222.646V141.62ZM214.442 152.064V149.012H209.542V152.064H214.442ZM222.674 159.148V156.852H226.342V167.072H209.262V156.852H212.902V159.148H222.674ZM222.674 164.16V161.976H212.902V164.16H222.674Z" fill="white"/>
<path d="M31.365 48V36.9H33.825L35.715 42.09C35.955 42.795 36.165 43.515 36.39 44.235H36.465C36.705 43.515 36.9 42.795 37.14 42.09L38.985 36.9H41.445V48H39.42V43.365C39.42 42.33 39.57 40.755 39.69 39.72H39.63L38.73 42.33L37.02 46.995H35.745L34.02 42.33L33.135 39.72H33.075C33.195 40.755 33.36 42.33 33.36 43.365V48H31.365ZM53.4227 49.29V35.475H55.2977V49.29H53.4227ZM49.2977 39.945H50.7827V35.715H52.6277V48.675H50.7827V44.745H49.2527C48.7577 45.765 47.8577 46.41 46.6577 46.41C44.9327 46.41 43.7177 45.03 43.7177 43.08C43.7177 41.13 44.9327 39.75 46.6577 39.75C47.8577 39.75 48.8327 40.44 49.2977 41.52C49.4927 42.06 49.5977 42.57 49.5977 43.065V43.17H50.7827V41.52H49.2977V39.945ZM47.6627 37.545H49.9427V39.135H43.4327V37.545H45.7127V35.82H47.6627V37.545ZM46.6577 44.745C47.3777 44.745 47.8877 44.16 47.8877 43.08C47.8877 42 47.3777 41.4 46.6577 41.4C45.9527 41.4 45.4277 42 45.4277 43.08C45.4277 44.16 45.9527 44.745 46.6577 44.745ZM67.1466 35.475H69.0216V43.905H67.1466V40.44H66.0366V43.815H64.1916V35.715H66.0366V38.865H67.1466V35.475ZM63.4566 41.49L63.6366 43.065C62.0766 43.305 60.7116 43.365 58.6716 43.365H57.7116V36.405H63.1416V37.965H59.6166V39.105H63.0066V40.605H59.6166V41.775C61.1016 41.76 62.1966 41.685 63.4566 41.49ZM59.5116 46.08V44.505H69.0216V49.305H67.0416V46.08H59.5116Z" fill="white"/>
<defs>
<linearGradient id="paint0_linear_135_1541" x1="390.286" y1="273.411" x2="59.4693" y2="-59.1563" gradientUnits="userSpaceOnUse">
<stop stop-color="#33A5DB"/>
<stop offset="1" stop-color="#1266A9"/>
</linearGradient>
</defs>
</svg>
