<svg width="448" height="216" viewBox="0 0 448 216" fill="none" xmlns="http://www.w3.org/2000/svg">
<rect width="448" height="216" rx="12" fill="url(#paint0_linear_459_1984)"/>
<path d="M51.392 84.612V97.408H47.696V71.62H51.392V81.532H55.144V84.612H51.392ZM40.696 77.36C40.696 82.008 42.516 86.712 46.66 88.728L44.42 91.64C41.732 90.268 39.94 87.86 38.848 84.696C37.728 87.972 35.796 90.688 32.884 92.116L30.672 89.12C35.012 87.104 36.972 82.148 36.972 77.36V73.608H40.696V77.36ZM80.2578 86.768H56.9618V83.856H62.1978V80.748C60.2658 79.88 59.2858 78.62 59.2858 76.968C59.2858 73.888 62.9258 72.012 68.6098 72.012C74.3218 72.012 77.9618 73.888 77.9618 76.968C77.9618 78.648 76.8698 79.908 74.9658 80.776V83.856H80.2578V86.768ZM68.6098 74.812C65.1098 74.812 63.0938 75.512 63.0938 76.968C63.0938 78.396 65.1098 79.096 68.6098 79.096C72.2218 79.096 74.1538 78.396 74.1538 76.968C74.1538 75.512 72.2218 74.812 68.6098 74.812ZM71.2698 83.856V81.728C70.4578 81.812 69.5898 81.868 68.6098 81.868C67.6298 81.868 66.7338 81.812 65.8938 81.7V83.856H71.2698ZM68.5538 88.056C74.1258 88.056 77.5138 89.736 77.5138 92.732C77.5138 95.756 74.1258 97.436 68.5538 97.436C62.9818 97.436 59.6218 95.756 59.6218 92.732C59.6218 89.736 62.9818 88.056 68.5538 88.056ZM68.5538 94.636C72.0258 94.636 73.7618 93.992 73.7618 92.732C73.7618 91.416 72.0538 90.856 68.5538 90.856C65.0538 90.856 63.3458 91.416 63.3458 92.732C63.3458 93.992 65.0818 94.636 68.5538 94.636ZM104.364 97.464H100.668V84.472H96.1036V81.476H100.668V71.62H104.364V97.464ZM92.3516 79.656C92.3516 83.352 94.3396 87.524 98.4836 89.4L96.5236 92.228C93.6956 90.968 91.6796 88.56 90.5596 85.648C89.4676 88.812 87.4516 91.332 84.5396 92.648L82.5796 89.82C86.7236 87.888 88.6556 83.52 88.6556 79.656V78.76H83.4476V75.82H88.6556V72.236H92.3516V75.82H97.4756V78.76H92.3516V79.656ZM44.98 120.956C42.04 120.172 40.08 118.604 38.876 116.588C37.728 118.828 35.74 120.592 32.716 121.404L31.008 118.52C35.068 117.4 36.888 114.768 36.972 111.996H31.932V109.084H36.972V106.536H40.668V109.084H45.764V111.996H40.668C40.752 114.488 42.544 117.148 46.632 118.1L44.98 120.956ZM54.92 115.44H51.504V121.292H47.808V106.62H51.504V112.388H54.92V115.44ZM45.344 125.324C46.016 127.172 48.536 129.02 52.932 129.552L51.616 132.352C47.444 131.82 44.672 130.252 43.216 128.012C41.732 130.252 38.932 131.792 34.76 132.324L33.444 129.524C38.008 128.992 40.36 127.256 41.032 125.324H34.564V122.412H51.84V125.324H45.344ZM68.6098 115.776C62.5338 115.776 59.2858 114.292 59.2858 111.38C59.2858 108.552 62.5338 106.984 68.6098 106.984C74.7418 106.984 77.9618 108.552 77.9618 111.38C77.9618 114.292 74.7418 115.776 68.6098 115.776ZM68.6098 109.7C64.8858 109.7 63.1218 110.232 63.1218 111.38C63.1218 112.584 64.8858 113.088 68.6098 113.088C72.4458 113.088 74.1258 112.584 74.1258 111.38C74.1258 110.232 72.4458 109.7 68.6098 109.7ZM80.2578 119.892H56.9618V117.008H80.2578V119.892ZM78.1018 129.44V132.212H59.6498V125.436H73.7898V124.064H59.6218V121.348H77.4298V127.984H63.3178V129.44H78.1018ZM106.843 119.836V106.648H110.539V119.836H106.843ZM105.191 118.38C100.123 119.192 94.3554 119.388 89.8754 119.388L89.5114 116.448L92.1994 116.42V111.044H90.1554V108.188H104.043V111.044H102.027V116.056C103.063 115.972 104.043 115.888 105.023 115.776L105.191 118.38ZM95.7554 116.364C96.6514 116.336 97.5754 116.336 98.4714 116.252V111.044H95.7554V116.364ZM111.267 132.212H93.1234V125.184H106.871V123.7H93.0954V120.872H110.539V127.816H96.7914V129.356H111.267V132.212ZM138.173 129.412H114.821V126.416H119.973V120.116C117.957 118.912 116.837 117.064 116.865 114.824C116.865 110.596 120.953 107.88 126.469 107.88C132.041 107.88 136.101 110.596 136.101 114.824C136.101 117.064 134.925 118.912 132.993 120.116V126.416H138.173V129.412ZM126.469 110.792C122.885 110.792 120.505 112.248 120.505 114.824C120.505 117.4 122.885 118.856 126.469 118.856C130.053 118.856 132.461 117.4 132.461 114.824C132.461 112.248 130.053 110.792 126.469 110.792ZM129.325 126.416V121.488C128.429 121.656 127.477 121.74 126.469 121.74C125.489 121.74 124.537 121.656 123.641 121.488V126.416H129.325ZM160.671 115.132C159.999 117.904 157.283 119.752 154.035 119.752C150.171 119.752 147.259 117.232 147.259 113.648C147.259 110.12 150.171 107.572 154.035 107.572C157.311 107.572 159.971 109.364 160.643 112.136H164.787V106.62H168.483V120.256H164.787V115.132H160.671ZM150.787 113.648C150.787 115.58 152.131 116.7 154.035 116.7C155.939 116.7 157.311 115.58 157.311 113.648C157.311 111.744 155.939 110.624 154.035 110.624C152.131 110.624 150.787 111.744 150.787 113.648ZM166.803 123.448C166.803 126.136 168.007 128.516 171.171 129.636L169.351 132.38C167.195 131.596 165.795 130.14 164.927 128.348C164.059 130.14 162.743 131.568 160.615 132.38L159.159 130.168V132.1H149.751V121.74H153.167V124.26H155.771V121.74H159.159V129.468C161.987 128.124 163.163 125.8 163.163 123.448V121.516H166.803V123.448ZM153.167 126.92V129.356H155.771V126.92H153.167ZM194.045 132.464H190.349V106.592H194.045V132.464ZM180.185 108.412C184.077 108.412 186.961 111.94 186.961 117.596C186.961 123.28 184.077 126.836 180.185 126.836C176.293 126.836 173.409 123.28 173.409 117.596C173.409 111.94 176.293 108.412 180.185 108.412ZM180.185 111.744C178.281 111.744 176.965 113.76 176.965 117.596C176.965 121.432 178.281 123.476 180.185 123.476C182.089 123.476 183.405 121.432 183.405 117.596C183.405 113.76 182.089 111.744 180.185 111.744ZM53.324 167.38H49.824V154.416H47.668V166.232H44.224V142.012H47.668V151.448H49.824V141.592H53.324V167.38ZM42.096 144.252V160.968H31.932V144.252H42.096ZM38.68 158.084V147.164H35.376V158.084H38.68ZM80.6778 149.488H77.2618V154.416H73.5658V141.592H77.2618V146.492H80.6778V149.488ZM71.9418 153.016C68.5818 153.772 65.5018 153.884 60.0138 153.884H57.8578V142.964H69.3938V145.848H61.5258V150.972C65.9498 150.972 68.6938 150.72 71.5778 150.132L71.9418 153.016ZM77.9898 164.216V167.1H60.2658V159.904H73.6218V158.392H60.2378V155.48H77.2618V162.592H63.9338V164.216H77.9898ZM89.0354 146.296V143.524H94.7754V141.424H98.4994V143.524H104.239V146.296H89.0354ZM112.779 150.104H109.363V155.536H105.667V141.592H109.363V147.08H112.779V150.104ZM102.979 151.14C102.979 153.716 100.487 155.34 96.6514 155.34C92.8434 155.34 90.3234 153.716 90.3234 151.14C90.3234 148.536 92.8434 146.912 96.6514 146.912C100.487 146.912 102.979 148.536 102.979 151.14ZM93.8514 151.14C93.8514 152.232 94.9434 152.736 96.6514 152.736C98.3594 152.736 99.4514 152.232 99.4514 151.14C99.4514 150.048 98.3594 149.516 96.6514 149.516C94.9434 149.516 93.8514 150.048 93.8514 151.14ZM110.091 164.524V167.212H92.3674V160.576H105.723V159.232H92.3394V156.544H109.363V163.096H96.0354V164.524H110.091ZM132.517 160.156V141.648H136.241V160.156H132.517ZM129.213 149.824C129.213 153.576 126.161 156.348 122.213 156.348C118.265 156.348 115.185 153.576 115.185 149.824C115.185 146.016 118.265 143.272 122.213 143.272C126.161 143.272 129.213 146.016 129.213 149.824ZM118.797 149.824C118.797 151.952 120.309 153.156 122.213 153.156C124.145 153.156 125.601 151.952 125.601 149.824C125.601 147.696 124.145 146.464 122.213 146.464C120.309 146.464 118.797 147.696 118.797 149.824ZM136.885 166.96H119.077V158.336H122.773V164.02H136.885V166.96ZM164.295 150.524H160.879V156.656H157.183V141.62H160.879V147.472H164.295V150.524ZM141.335 155.396V143.132H144.975V146.38H150.043V143.132H153.683V155.396H141.335ZM144.975 149.208V152.512H150.043V149.208H144.975ZM161.523 164.16V167.1H144.135V157.776H161.047V160.716H147.803V164.16H161.523ZM169.221 151.532V142.544H172.917V148.592H187.113V151.532H169.221ZM189.689 157.132H166.337V154.164H189.689V157.132ZM187.253 163.908V166.876H168.969V159.176H172.693V163.908H187.253ZM219.998 155.76H216.302V150.468H211.71V155.004H199.53V142.936H203.198V146.184H208.098V142.936H211.71V147.5H216.302V141.62H219.998V155.76ZM203.198 149.012V152.064H208.098V149.012H203.198ZM219.998 156.852V167.072H202.918V156.852H206.558V159.148H216.33V156.852H219.998ZM206.558 161.976V164.16H216.33V161.976H206.558Z" fill="white"/>
<path d="M30.405 36.9H32.865L33.975 39.18C34.23 39.705 34.455 40.23 34.8 40.935H34.875C35.16 40.23 35.37 39.705 35.61 39.18L36.66 36.9H39L36.075 42.375L39.195 48H36.735L35.49 45.54C35.205 44.955 34.965 44.385 34.62 43.71H34.56C34.275 44.385 34.035 44.955 33.75 45.54L32.565 48H30.21L33.33 42.27L30.405 36.9ZM51.8993 49.29H50.0243V35.475H51.8993V49.29ZM49.2293 35.715V48.675H47.3843V44.745H45.8543C45.3593 45.765 44.4593 46.41 43.2593 46.41C41.5343 46.41 40.3193 45.03 40.3193 43.08C40.3193 41.13 41.5343 39.75 43.2593 39.75C44.4593 39.75 45.4343 40.44 45.8993 41.52V39.945H47.3843V35.715H49.2293ZM40.0343 39.135V37.545H42.3143V35.82H44.2643V37.545H46.5443V39.135H40.0343ZM43.2593 44.745C43.9793 44.745 44.4893 44.16 44.4893 43.08C44.4893 42 43.9793 41.4 43.2593 41.4C42.5543 41.4 42.0293 42 42.0293 43.08C42.0293 44.16 42.5543 44.745 43.2593 44.745ZM47.3843 41.52H45.8993C46.0943 42.06 46.1993 42.57 46.1993 43.065V43.17H47.3843V41.52ZM65.6231 43.905H63.7481V40.44H62.6381V43.815H60.7931V35.715H62.6381V38.865H63.7481V35.475H65.6231V43.905ZM60.2381 43.065C58.6781 43.305 57.3131 43.365 55.2731 43.365H54.3131V36.405H59.7431V37.965H56.2181V39.105H59.6081V40.605H56.2181V41.775C57.7031 41.76 58.7981 41.685 60.0581 41.49L60.2381 43.065ZM65.6231 44.505V49.305H63.6431V46.08H56.1131V44.505H65.6231Z" fill="white"/>
<defs>
<linearGradient id="paint0_linear_459_1984" x1="370.012" y1="281.095" x2="79.7946" y2="-66.6032" gradientUnits="userSpaceOnUse">
<stop stop-color="#DD2B05"/>
<stop offset="1" stop-color="#FF9045"/>
</linearGradient>
</defs>
</svg>
