<svg width="83" height="41" viewBox="0 0 83 41" fill="none" xmlns="http://www.w3.org/2000/svg">
<g id="Card_up_&#236;&#163;&#188;&#236;&#181;&#156;&#236;&#130;&#172;_logo" clip-path="url(#clip0_1359_1817)">
<g id="Card_up_&#236;&#163;&#188;&#236;&#181;&#156;&#236;&#130;&#172;_logo_2">
<g id="Group">
<g id="Group_2">
<g id="Group_3">
<g id="Group_4">
<path id="Vector" d="M83.1496 0.759155H0V40.7942H83.1496V0.759155Z" fill="white"/>
<g id="Mask group">
<mask id="mask0_1359_1817" style="mask-type:luminance" maskUnits="userSpaceOnUse" x="0" y="0" width="84" height="41">
<g id="Group_5">
<path id="Vector_2" d="M83.1496 0.759155H0V40.7942H83.1496V0.759155Z" fill="white"/>
</g>
</mask>
<g mask="url(#mask0_1359_1817)">
<g id="Group_6">
<g id="Group_7">
<g id="Group_8">
<path id="Vector_3" fill-rule="evenodd" clip-rule="evenodd" d="M3.17969 35.6302C1.36918 35.633 0.704738 34.0993 0.70381 33.1219L0.698242 23.1319C0.698242 22.9222 0.783617 22.8168 0.988703 22.8168L2.7788 22.8159C2.98481 22.8159 3.1036 22.9194 3.1036 23.1291L3.11102 33.4341C3.11102 33.6596 3.19547 33.764 3.41633 33.764L9.16709 33.7603C9.37125 33.7603 9.50766 33.8471 9.50766 34.0217C9.50766 34.2157 9.38795 34.3719 9.21998 34.4753L7.77046 35.3142C7.35843 35.5415 6.94919 35.6284 6.50561 35.6284L3.17969 35.6302Z" fill="black"/>
<path id="Vector_4" fill-rule="evenodd" clip-rule="evenodd" d="M12.7009 35.3459C12.7009 35.5556 12.5811 35.6259 12.3761 35.6259L10.5693 35.6268C10.3976 35.6268 10.3289 35.5575 10.3289 35.3487L10.3252 23.1063C10.3252 22.916 10.3902 22.8115 10.5618 22.8115H12.3733C12.5774 22.8097 12.6953 22.9141 12.6953 23.1054L12.7009 35.3459Z" fill="black"/>
<path id="Vector_5" fill-rule="evenodd" clip-rule="evenodd" d="M25.1179 24.7741L25.1189 26.4999C25.1189 27.2677 24.8303 27.9467 24.2493 28.4355C24.1816 28.5075 24.1306 28.5759 24.1306 28.6978C24.1306 28.817 24.1816 28.8872 24.267 28.9408C24.8488 29.4453 25.1569 30.1077 25.1569 30.9309V31.9065C25.1588 32.8812 24.73 33.6314 23.8781 34.1367L21.9182 35.3073C21.5248 35.5346 21.1155 35.6224 20.6348 35.6224L15.246 35.6233C15.0567 35.6233 14.988 35.5549 14.988 35.3452L14.9824 23.124C14.9824 22.9143 15.0492 22.8099 15.2385 22.8099H17.0119C17.217 22.8081 17.3377 22.9125 17.3377 23.1203V23.4003C17.3377 23.6266 17.4397 23.7126 17.6959 23.6608L22.4212 22.7C22.695 22.6639 22.9 22.6298 23.0012 22.6298C23.8707 22.6288 25.1179 23.2913 25.1179 24.7741ZM22.6607 27.9818V25.0171C22.6607 24.7935 22.5066 24.6531 22.2699 24.6531L17.6448 24.6568C17.424 24.6568 17.3386 24.7963 17.3386 25.0208V28.0031C17.3404 28.2146 17.4416 28.3163 17.6652 28.3163L22.2718 28.3153C22.5112 28.3153 22.6634 28.21 22.6607 27.9818ZM22.6662 33.4226L22.6653 30.5641C22.6653 30.3368 22.5112 30.1807 22.2718 30.1807L17.6652 30.1825C17.4416 30.1825 17.3404 30.322 17.3404 30.5484L17.3432 33.4429C17.3432 33.6526 17.4453 33.7422 17.668 33.7422L22.2755 33.7386C22.5121 33.7386 22.6662 33.6342 22.6662 33.4226Z" fill="black"/>
<path id="Vector_6" fill-rule="evenodd" clip-rule="evenodd" d="M37.0143 24.7668V26.8936C37.0152 27.8849 36.5893 28.6027 35.7188 29.1072L34.8316 29.6486C34.6442 29.7724 34.5941 29.9091 34.7286 30.1022L37.752 35.3831C37.8383 35.5772 37.8207 35.6104 37.5813 35.6104L35.4664 35.6132C35.2771 35.6132 35.1091 35.5439 35.0228 35.3517L32.4959 30.8894C32.391 30.6972 32.2212 30.5928 32.0013 30.5928L29.7648 30.5946C29.5597 30.5946 29.4743 30.7166 29.4743 30.9263L29.4799 35.3194C29.4799 35.5457 29.3416 35.616 29.1356 35.616L27.3622 35.6178C27.1572 35.6178 27.0885 35.5476 27.0885 35.3379L27.0811 23.1167C27.0811 22.907 27.1497 22.8007 27.3539 22.8007H29.1282C29.3333 22.8007 29.4734 22.9033 29.4734 23.113V23.393C29.4734 23.6369 29.5727 23.7256 29.7954 23.6553L34.3147 22.6927C34.5384 22.6575 34.7425 22.6224 34.8947 22.6224C35.716 22.6224 37.0115 23.2664 37.0143 24.7668ZM34.5746 28.3598L34.5727 25.0098C34.5727 24.7862 34.4549 24.6633 34.2479 24.6633L29.7629 24.6651C29.5569 24.6651 29.4734 24.7899 29.4734 25.0144L29.4743 28.3801C29.4743 28.6064 29.5597 28.7108 29.7648 28.7108L34.2498 28.7081C34.4577 28.7081 34.5746 28.587 34.5746 28.3598Z" fill="black"/>
<path id="Vector_7" fill-rule="evenodd" clip-rule="evenodd" d="M49.3059 35.3261C49.3745 35.5349 49.3059 35.6042 49.0832 35.6042L47.2578 35.607C47.0536 35.607 46.9182 35.5377 46.8671 35.3095L46.1321 32.6764C46.0458 32.5036 45.9104 32.3632 45.7043 32.3632L41.5237 32.365C41.3187 32.365 41.1646 32.5046 41.1312 32.6792L40.3832 35.3132C40.3303 35.5395 40.2283 35.6097 39.9898 35.6097L38.1301 35.6116C37.9436 35.6116 37.8934 35.5414 37.9436 35.3335L41.5878 23.0902C41.6388 22.898 41.7762 22.7927 41.9785 22.7927L45.2227 22.7917C45.4584 22.7917 45.5986 22.8961 45.6644 23.0883L49.3059 35.3261ZM45.4306 30.1662L43.8567 24.5693C43.8242 24.4668 43.7361 24.3975 43.6034 24.3975C43.4809 24.3975 43.415 24.4668 43.3621 24.5712L41.8142 30.1671C41.7465 30.4138 41.83 30.4831 42.036 30.4831L45.1578 30.4812C45.4148 30.4812 45.4983 30.412 45.4306 30.1662Z" fill="black"/>
<path id="Vector_8" fill-rule="evenodd" clip-rule="evenodd" d="M60.2044 24.7536L60.2053 26.8813C60.2053 27.8736 59.7821 28.5905 58.9117 29.0941L58.0245 29.6364C57.8352 29.7574 57.786 29.8969 57.9224 30.0891L60.9468 35.3719C61.0321 35.5622 61.0154 35.5973 60.776 35.5973L58.6593 35.6001C58.4709 35.6001 58.3001 35.5289 58.2157 35.3386L55.6888 30.8753C55.5848 30.6841 55.415 30.5797 55.1914 30.5797L52.9577 30.5824C52.7526 30.5824 52.6681 30.7035 52.6681 30.9132L52.67 35.3063C52.67 35.5345 52.5336 35.6037 52.3294 35.6037H50.5551C50.35 35.6037 50.2814 35.5345 50.2814 35.3247L50.2739 23.1017C50.2739 22.892 50.3426 22.7895 50.5468 22.7895L52.322 22.7876C52.5262 22.7876 52.6644 22.892 52.6644 23.1008V23.3808C52.6644 23.6237 52.7665 23.7124 52.9864 23.6422L57.5095 22.6795C57.7294 22.6444 57.9354 22.6102 58.0895 22.6102C58.9089 22.6102 60.2044 23.2533 60.2044 24.7536ZM57.7684 28.3457L57.7647 24.9966C57.7647 24.773 57.6459 24.6502 57.4417 24.6502L52.954 24.6529C52.7517 24.6529 52.6644 24.7767 52.6644 25.0003L52.6654 28.3679C52.6654 28.5933 52.7526 28.6977 52.9567 28.6977L57.4436 28.694C57.6477 28.694 57.7684 28.5758 57.7684 28.3457Z" fill="black"/>
<path id="Vector_9" fill-rule="evenodd" clip-rule="evenodd" d="M72.0829 23.0553L67.7529 30.3623C67.649 30.5369 67.5803 30.7291 67.5803 30.9388L67.5849 35.2986C67.5849 35.5241 67.481 35.5943 67.2954 35.5943L65.5053 35.5952C65.3169 35.5952 65.213 35.5259 65.213 35.2996L65.2102 30.9425C65.2102 30.7291 65.1425 30.5388 65.0395 30.3642L60.7354 23.0609C60.7002 22.9925 60.7002 22.9398 60.7354 22.8705C60.7688 22.816 60.8217 22.7818 60.9071 22.7818H62.9208C63.1092 22.7818 63.2791 22.8862 63.3988 23.0784L66.1651 28.2023C66.2161 28.3076 66.283 28.3584 66.4045 28.3584C66.4899 28.3584 66.5586 28.3076 66.6272 28.2023L69.4047 23.0747C69.5244 22.8835 69.6414 22.7781 69.8297 22.7781L71.9289 22.7772C71.979 22.7772 72.0504 22.8114 72.0829 22.8631C72.1154 22.9324 72.1154 22.9869 72.0829 23.0553Z" fill="black"/>
<path id="Vector_10" fill-rule="evenodd" clip-rule="evenodd" d="M15.6774 19.1955C15.6774 19.4034 15.5939 19.4764 15.387 19.4764H13.6776C13.4735 19.4764 13.3872 19.4071 13.3872 19.1808L13.3825 8.55239C13.3825 8.37778 13.2804 8.27338 13.0921 8.27338C12.9222 8.27338 12.8378 8.36022 12.8016 8.51636L10.2116 19.1992C10.1745 19.408 10.039 19.4783 9.83389 19.4783L6.46992 19.481C6.28061 19.481 6.14512 19.4108 6.108 19.2011L3.5087 8.52375C3.45766 8.36484 3.36857 8.28169 3.23494 8.28169C3.04656 8.28169 2.92407 8.38517 2.92407 8.56163L2.93149 19.1863C2.93149 19.4136 2.82848 19.4838 2.60762 19.4838H0.900117C0.730295 19.4838 0.661624 19.4136 0.661624 19.2039L0.652344 6.95777C0.652344 6.7656 0.720087 6.6612 0.892693 6.6612L4.95822 6.6575C5.18187 6.6575 5.29972 6.76283 5.36839 6.955L7.88603 17.649C7.90274 17.8014 7.9909 17.8744 8.14309 17.8744C8.31291 17.8744 8.41592 17.8014 8.4484 17.649L10.9725 6.95038C11.0069 6.75821 11.1108 6.65381 11.3131 6.65381H15.3823C15.5846 6.65381 15.671 6.75728 15.671 6.95038L15.6774 19.1955Z" fill="black"/>
<path id="Vector_11" fill-rule="evenodd" clip-rule="evenodd" d="M19.9689 19.6462C18.7894 19.6462 17.9171 18.6697 17.9171 17.537L17.9097 6.96588C17.9097 6.75616 17.9774 6.65269 18.1676 6.65269L19.9791 6.64991C20.1823 6.64991 20.302 6.75431 20.302 6.96403L20.3095 17.2737C20.3095 17.5009 20.3939 17.6053 20.6157 17.6053L25.418 17.6016C25.6742 17.6016 25.793 17.4963 25.793 17.269L25.7883 6.96126C25.7883 6.75154 25.8728 6.64712 26.0593 6.64712H27.8382C28.0591 6.64529 28.1788 6.75062 28.1788 6.95849L28.1872 19.1889C28.1872 19.3986 28.0675 19.4688 27.8438 19.4697H26.0695C25.8811 19.4697 25.7967 19.3995 25.7967 19.1723L25.7957 18.8757C25.7957 18.666 25.6398 18.5597 25.3819 18.6133L20.5489 19.5778C20.2937 19.6462 20.1044 19.6462 19.9689 19.6462Z" fill="black"/>
<path id="Vector_12" fill-rule="evenodd" clip-rule="evenodd" d="M39.7188 14.5395V15.7776C39.7188 16.7726 39.3095 17.5237 38.4883 18.0115L36.4745 19.1488C36.0829 19.3761 35.6542 19.4639 35.2449 19.4639L30.6811 19.4675C30.4593 19.4675 30.3739 19.3983 30.3739 19.1885V17.9136C30.3739 17.7214 30.4584 17.5985 30.6959 17.5985L36.9868 17.5939C37.1557 17.5939 37.293 17.4886 37.293 17.2632L37.2912 14.2947C37.2912 14.0674 37.1548 13.9436 36.9849 13.9464H32.5426C31.0198 13.9464 30.0463 12.7454 30.0463 11.4048L30.0454 10.3248C30.0454 9.36579 30.4185 8.61559 31.2564 8.10746L33.273 6.97477C33.6479 6.74657 34.0738 6.64402 34.4831 6.64125L38.9634 6.6394C39.1843 6.6394 39.3021 6.7438 39.3021 6.9526L39.3049 8.22664C39.3049 8.41788 39.1852 8.5038 38.9634 8.5038L32.7616 8.50842C32.5361 8.50842 32.4693 8.6313 32.4693 8.8558L32.4721 11.5933C32.4721 11.8547 32.5566 11.9434 32.7783 11.9434L37.2049 11.9407C38.2962 11.9407 39.7169 12.8276 39.7188 14.5395Z" fill="black"/>
<path id="Vector_13" fill-rule="evenodd" clip-rule="evenodd" d="M43.7542 19.1802C43.7542 19.3881 43.6327 19.4583 43.4276 19.4583L41.6161 19.4601C41.4463 19.4601 41.3776 19.3918 41.3776 19.1811L41.3721 6.9341C41.3721 6.74286 41.4407 6.63661 41.6106 6.63661L43.422 6.63477C43.6271 6.63477 43.7459 6.74194 43.7459 6.93226L43.7542 19.1802Z" fill="black"/>
<path id="Vector_14" fill-rule="evenodd" clip-rule="evenodd" d="M46.1269 16.9448L46.126 10.3307C46.126 9.35695 46.5324 8.60398 47.3695 8.09769L49.3684 6.96501C49.7257 6.73681 50.1535 6.63149 50.5469 6.63149L54.7841 6.62964C54.9883 6.62964 55.0922 6.73496 55.0922 6.94653V8.2178C55.0922 8.40812 54.9911 8.49496 54.786 8.49496L48.8561 8.49681C48.6529 8.49681 48.5675 8.62153 48.5675 8.84789L48.5712 17.258C48.5712 17.4834 48.6557 17.5888 48.8608 17.5888L54.9614 17.5841C55.1479 17.5841 55.2695 17.6738 55.2695 17.8484C55.2695 18.0387 55.1832 18.1976 54.9957 18.2992L53.5258 19.139C53.1342 19.3672 52.7249 19.4541 52.3138 19.4541L48.6223 19.4559C47.4112 19.4559 46.1288 18.5672 46.1269 16.9448Z" fill="black"/>
</g>
</g>
</g>
</g>
</g>
</g>
</g>
</g>
</g>
</g>
</g>
<defs>
<clipPath id="clip0_1359_1817">
<rect width="83.1496" height="40.035" fill="white" transform="translate(0 0.759155)"/>
</clipPath>
</defs>
</svg>
