<svg width="912" height="82" viewBox="0 0 912 82" fill="none" xmlns="http://www.w3.org/2000/svg">
<path d="M8.94616 8.89C8.94616 8.47 9.0115 8.134 9.14216 7.882C9.28216 7.62067 9.46883 7.434 9.70216 7.322C9.94483 7.21 10.2108 7.154 10.5002 7.154C10.7895 7.154 11.0508 7.21 11.2842 7.322C11.5175 7.434 11.7042 7.62067 11.8442 7.882C11.9842 8.134 12.0542 8.47 12.0542 8.89C12.0542 9.30067 11.9842 9.63667 11.8442 9.898C11.7042 10.15 11.5175 10.3367 11.2842 10.458C11.0508 10.57 10.7895 10.626 10.5002 10.626C10.2108 10.626 9.94483 10.57 9.70216 10.458C9.46883 10.3367 9.28216 10.15 9.14216 9.898C9.0115 9.63667 8.94616 9.30067 8.94616 8.89ZM22.68 6.93L30.422 6.636C30.464 5.95 30.45 5.32 30.45 4.746H23.044V3.584H31.878V4.746C31.878 6.286 31.892 8.022 31.332 10.71L29.904 10.542C30.128 9.478 30.268 8.582 30.338 7.742L22.876 8.148L22.68 6.93ZM27.426 12.306H33.138V13.496H21.7V12.306H25.97V9.128H27.426V12.306ZM45.5549 8.61L44.9249 9.8C42.8669 9.394 41.0889 8.05 40.2629 6.328C39.4369 8.05 37.6589 9.394 35.6009 9.8L34.9849 8.61C37.4769 8.162 39.5069 6.174 39.5069 4.2V3.248H41.0329V4.2C41.0329 6.216 43.0629 8.162 45.5549 8.61ZM34.5929 12.264H46.0449V13.454H34.5929V12.264ZM57.6498 9.114V10.276H48.8858V3.458H57.5518V4.62H50.3558V6.244H57.2718V7.378H50.3558V9.114H57.6498ZM47.4718 12.348H58.9378V13.524H47.4718V12.348ZM61.3167 6.93L69.0587 6.636C69.1007 5.95 69.0867 5.32 69.0867 4.746H61.6807V3.584H70.5147V4.746C70.5147 6.286 70.5287 8.022 69.9687 10.71L68.5407 10.542C68.7647 9.478 68.9047 8.582 68.9747 7.742L61.5127 8.148L61.3167 6.93ZM66.0627 12.306H71.7747V13.496H60.3367V12.306H64.6067V9.128H66.0627V12.306ZM82.6516 2.436H84.0236V15.064H82.6516V2.436ZM80.1176 7.224V2.674H81.4616V14.476H80.1176V8.414H78.7736C78.6616 10.878 77.5836 12.39 76.0716 12.39C74.4476 12.39 73.3556 10.654 73.3556 7.896C73.3556 5.124 74.4476 3.416 76.0716 3.416C77.5976 3.416 78.6056 4.858 78.7596 7.224H80.1176ZM76.0716 11.032C76.9676 11.032 77.4716 9.926 77.4716 7.896C77.4716 5.866 76.9676 4.774 76.0716 4.774C75.1756 4.774 74.6716 5.866 74.6716 7.896C74.6716 9.926 75.1756 11.032 76.0716 11.032ZM95.1525 2.408H96.6085V15.092H95.1525V7.742H92.4505V6.566H95.1525V2.408ZM90.6865 3.458V5.544C90.6865 7.882 91.8765 10.192 93.8225 11.088L92.9685 12.25C91.5125 11.536 90.5185 10.15 89.9725 8.456C89.4125 10.262 88.3905 11.718 86.9345 12.46L86.0245 11.312C87.9985 10.346 89.2305 7.91 89.2305 5.544V3.458H90.6865ZM108.544 12.348H113.57V13.524H102.118V12.348H107.102V9.492H103.392V3.444H112.24V9.492H108.544V12.348ZM104.806 4.592V8.344H110.826V4.592H104.806ZM125.147 6.356V7.532H116.425V2.94H125.049V4.102H117.853V6.356H125.147ZM115.011 8.75H126.449V9.926H115.011V8.75ZM117.853 11.102V13.664H125.245V14.826H116.411V11.102H117.853ZM138.049 3.878V5.026H131.035V3.878H133.877V2.408H135.319V3.878H138.049ZM140.037 12.082V9.548H138.105V8.386H140.037V6.874H138.105V5.698H140.037V2.436H141.479V12.082H140.037ZM137.503 8.064C137.503 9.52 136.327 10.514 134.591 10.514C132.869 10.514 131.693 9.52 131.693 8.064C131.693 6.594 132.869 5.614 134.591 5.614C136.327 5.614 137.503 6.594 137.503 8.064ZM133.051 8.064C133.051 8.904 133.681 9.38 134.591 9.38C135.543 9.38 136.145 8.904 136.145 8.064C136.145 7.224 135.543 6.734 134.591 6.734C133.681 6.734 133.051 7.224 133.051 8.064ZM134.703 13.664H141.773V14.84H133.247V11.27H134.703V13.664ZM153.294 2.422H154.666V15.064H153.294V8.596H151.796V14.448H150.438V2.688H151.796V7.42H153.294V2.422ZM145.72 5.11V10.878C147.176 10.864 148.324 10.794 149.626 10.528L149.752 11.718C148.226 12.012 146.938 12.068 145.146 12.068H144.306V3.934H148.982V5.11H145.72ZM168.469 7.42V8.624H166.551V15.064H165.109V2.422H166.551V7.42H168.469ZM157.535 3.696H163.289C163.289 7.476 162.183 10.78 157.591 13.09L156.807 11.97C159.047 10.85 160.349 9.576 161.091 7.994L157.087 8.386L156.891 7.14L161.525 6.846C161.693 6.23 161.805 5.572 161.861 4.872H157.535V3.696ZM179.808 8.4V9.562H171.044V3.542H179.71V4.718H172.486V8.4H179.808ZM169.644 12.264H181.11V13.454H169.644V12.264ZM194.599 2.422H196.055V15.106H194.599V2.422ZM189.321 3.36C191.211 3.36 192.583 5.096 192.583 7.812C192.583 10.556 191.211 12.278 189.321 12.278C187.459 12.278 186.073 10.556 186.073 7.812C186.073 5.096 187.459 3.36 189.321 3.36ZM189.321 4.662C188.201 4.662 187.459 5.838 187.459 7.812C187.459 9.842 188.201 10.99 189.321 10.99C190.441 10.99 191.197 9.842 191.197 7.812C191.197 5.838 190.441 4.662 189.321 4.662ZM207.226 8.582H209.956V9.73H198.518V8.582H201.234V6.902C200.282 6.496 199.736 5.866 199.736 5.026C199.736 3.528 201.486 2.646 204.244 2.646C207.002 2.646 208.752 3.528 208.752 5.026C208.752 5.866 208.192 6.482 207.226 6.916V8.582ZM204.244 3.766C202.326 3.766 201.22 4.186 201.22 5.026C201.22 5.866 202.326 6.3 204.244 6.3C206.162 6.3 207.254 5.866 207.254 5.026C207.254 4.186 206.162 3.766 204.244 3.766ZM202.676 7.294V8.582H205.784V7.294C205.322 7.364 204.804 7.406 204.244 7.406C203.684 7.406 203.138 7.364 202.676 7.294ZM204.216 10.542C207.016 10.542 208.57 11.354 208.57 12.81C208.57 14.266 207.016 15.078 204.216 15.078C201.5 15.078 199.862 14.266 199.862 12.81C199.862 11.354 201.43 10.542 204.216 10.542ZM204.216 13.972C206.078 13.972 207.114 13.594 207.114 12.81C207.114 12.026 206.078 11.648 204.216 11.648C202.354 11.648 201.332 12.026 201.332 12.81C201.332 13.594 202.354 13.972 204.216 13.972ZM226.246 7.42V8.624H224.328V15.064H222.886V2.422H224.328V7.42H226.246ZM215.158 3.766H221.024C221.024 7.434 219.456 10.682 215.326 12.768L214.528 11.662C217.594 10.08 219.288 7.84 219.582 4.942H215.158V3.766ZM237.557 5.796V6.958H228.919V2.674H230.361V5.796H237.557ZM227.421 8.232H238.859V9.408H227.421V8.232ZM233.105 10.388C235.891 10.388 237.459 11.214 237.459 12.726C237.459 14.196 235.821 15.05 233.105 15.05C230.403 15.05 228.751 14.196 228.751 12.726C228.751 11.228 230.403 10.388 233.105 10.388ZM233.105 13.93C234.967 13.93 236.003 13.51 236.003 12.726C236.003 11.928 234.967 11.522 233.105 11.522C231.243 11.522 230.221 11.928 230.221 12.726C230.221 13.51 231.243 13.93 233.105 13.93Z" fill="black"/>
<path d="M8.94616 40.89C8.94616 40.47 9.0115 40.134 9.14216 39.882C9.28216 39.6207 9.46883 39.434 9.70216 39.322C9.94483 39.21 10.2108 39.154 10.5002 39.154C10.7895 39.154 11.0508 39.21 11.2842 39.322C11.5175 39.434 11.7042 39.6207 11.8442 39.882C11.9842 40.134 12.0542 40.47 12.0542 40.89C12.0542 41.3007 11.9842 41.6367 11.8442 41.898C11.7042 42.15 11.5175 42.3367 11.2842 42.458C11.0508 42.57 10.7895 42.626 10.5002 42.626C10.2108 42.626 9.94483 42.57 9.70216 42.458C9.46883 42.3367 9.28216 42.15 9.14216 41.898C9.0115 41.6367 8.94616 41.3007 8.94616 40.89ZM28.14 44.348H33.166V45.524H21.714V44.348H26.698V41.492H22.988V35.444H31.836V41.492H28.14V44.348ZM24.402 36.592V40.344H30.422V36.592H24.402ZM44.7429 38.356V39.532H36.0209V34.94H44.6449V36.102H37.4489V38.356H44.7429ZM34.6069 40.75H46.0449V41.926H34.6069V40.75ZM37.4489 43.102V45.664H44.8409V46.826H36.0069V43.102H37.4489ZM62.3067 39.42V40.624H60.3887V47.064H58.9467V34.422H60.3887V39.42H62.3067ZM51.2187 35.766H57.0847C57.0847 39.434 55.5167 42.682 51.3867 44.768L50.5887 43.662C53.6547 42.08 55.3487 39.84 55.6427 36.942H51.2187V35.766ZM71.4756 38.804V41.674H70.1176V34.674H71.4756V37.628H72.8056V34.436H74.1776V42.08H72.8056V38.804H71.4756ZM68.9276 35.528V41.044H63.9856V35.528H68.9276ZM67.5836 39.952V36.634H65.3296V39.952H67.5836ZM69.9636 42.346C72.5956 42.346 74.2476 43.242 74.2476 44.712C74.2476 46.182 72.5956 47.078 69.9636 47.078C67.3456 47.078 65.6796 46.182 65.6796 44.712C65.6796 43.242 67.3456 42.346 69.9636 42.346ZM69.9636 45.958C71.7696 45.958 72.8056 45.51 72.8056 44.712C72.8056 43.914 71.7696 43.466 69.9636 43.466C68.1576 43.466 67.1216 43.914 67.1216 44.712C67.1216 45.51 68.1576 45.958 69.9636 45.958ZM85.3905 34.422H86.8325V41.786H85.3905V38.678H83.1505V37.502H85.3905V34.422ZM83.8645 40.344L83.1645 41.464C81.7645 40.974 80.7565 39.994 80.2105 38.762C79.6505 40.12 78.6005 41.226 77.0885 41.744L76.3465 40.61C78.3065 39.938 79.4545 38.244 79.4545 36.536V36.326H76.7805V35.164H83.5425V36.326H80.9105V36.536C80.9105 38.104 81.9885 39.672 83.8645 40.344ZM78.5305 46.924V42.36H86.8325V46.924H78.5305ZM79.9445 43.508V45.776H85.4185V43.508H79.9445ZM94.9514 39.966C92.2214 39.966 90.4434 39 90.4434 37.39C90.4434 35.78 92.2214 34.828 94.9514 34.828C97.6814 34.828 99.4594 35.78 99.4594 37.39C99.4594 39 97.6814 39.966 94.9514 39.966ZM94.9514 35.99C93.0894 35.99 91.9274 36.494 91.9274 37.39C91.9274 38.286 93.0894 38.804 94.9514 38.804C96.8134 38.804 97.9614 38.286 97.9614 37.39C97.9614 36.494 96.8134 35.99 94.9514 35.99ZM89.2254 40.988H100.663V42.164H89.2254V40.988ZM92.1234 43.158V45.664H99.3894V46.84H90.6674V43.158H92.1234ZM112.291 35.878V37.026H105.277V35.878H108.119V34.408H109.561V35.878H112.291ZM114.279 44.082V41.548H112.347V40.386H114.279V38.874H112.347V37.698H114.279V34.436H115.721V44.082H114.279ZM111.745 40.064C111.745 41.52 110.569 42.514 108.833 42.514C107.111 42.514 105.935 41.52 105.935 40.064C105.935 38.594 107.111 37.614 108.833 37.614C110.569 37.614 111.745 38.594 111.745 40.064ZM107.293 40.064C107.293 40.904 107.923 41.38 108.833 41.38C109.785 41.38 110.387 40.904 110.387 40.064C110.387 39.224 109.785 38.734 108.833 38.734C107.923 38.734 107.293 39.224 107.293 40.064ZM108.945 45.664H116.015V46.84H107.489V43.27H108.945V45.664ZM127.536 34.422H128.908V47.064H127.536V40.596H126.038V46.448H124.68V34.688H126.038V39.42H127.536V34.422ZM119.962 37.11V42.878C121.418 42.864 122.566 42.794 123.868 42.528L123.994 43.718C122.468 44.012 121.18 44.068 119.388 44.068H118.548V35.934H123.224V37.11H119.962ZM142.711 39.42V40.624H140.793V47.064H139.351V34.422H140.793V39.42H142.711ZM131.777 35.696H137.531C137.531 39.476 136.425 42.78 131.833 45.09L131.049 43.97C133.289 42.85 134.591 41.576 135.333 39.994L131.329 40.386L131.133 39.14L135.767 38.846C135.935 38.23 136.047 37.572 136.103 36.872H131.777V35.696ZM154.05 40.4V41.562H145.286V35.542H153.952V36.718H146.728V40.4H154.05ZM143.886 44.264H155.352V45.454H143.886V44.264ZM171.6 39.42V40.624H169.682V47.064H168.24V34.422H169.682V39.42H171.6ZM160.512 35.766H166.378C166.378 39.434 164.81 42.682 160.68 44.768L159.882 43.662C162.948 42.08 164.642 39.84 164.936 36.942H160.512V35.766ZM180.769 38.804V41.674H179.411V34.674H180.769V37.628H182.099V34.436H183.471V42.08H182.099V38.804H180.769ZM178.221 35.528V41.044H173.279V35.528H178.221ZM176.877 39.952V36.634H174.623V39.952H176.877ZM179.257 42.346C181.889 42.346 183.541 43.242 183.541 44.712C183.541 46.182 181.889 47.078 179.257 47.078C176.639 47.078 174.973 46.182 174.973 44.712C174.973 43.242 176.639 42.346 179.257 42.346ZM179.257 45.958C181.063 45.958 182.099 45.51 182.099 44.712C182.099 43.914 181.063 43.466 179.257 43.466C177.451 43.466 176.415 43.914 176.415 44.712C176.415 45.51 177.451 45.958 179.257 45.958ZM194.683 34.422H196.125V41.786H194.683V38.678H192.443V37.502H194.683V34.422ZM193.157 40.344L192.457 41.464C191.057 40.974 190.049 39.994 189.503 38.762C188.943 40.12 187.893 41.226 186.381 41.744L185.639 40.61C187.599 39.938 188.747 38.244 188.747 36.536V36.326H186.073V35.164H192.835V36.326H190.203V36.536C190.203 38.104 191.281 39.672 193.157 40.344ZM187.823 46.924V42.36H196.125V46.924H187.823ZM189.237 43.508V45.776H194.711V43.508H189.237ZM211.785 38.132V39.294H203.091V34.87H211.701V36.032H204.519V38.132H211.785ZM201.677 40.344H213.101V41.534H201.677V40.344ZM207.347 42.472C210.063 42.472 211.701 43.312 211.701 44.768C211.701 46.238 210.133 47.078 207.347 47.078C204.645 47.078 202.993 46.238 202.993 44.768C202.993 43.312 204.645 42.472 207.347 42.472ZM207.347 45.958C209.209 45.958 210.245 45.552 210.245 44.768C210.245 43.984 209.209 43.578 207.347 43.578C205.485 43.578 204.463 43.984 204.463 44.768C204.463 45.552 205.485 45.958 207.347 45.958ZM220.982 41.31H225.994V42.472H214.528V41.31H219.54V40.162H215.998V36.9H223.124V35.836H215.97V34.73H224.552V37.936H217.412V39.056H224.804V40.162H220.982V41.31ZM215.816 44.488V43.326H224.622V47.008H223.18V44.488H215.816ZM240.968 34.422V41.646H239.512V34.422H240.968ZM237.188 35.22V40.47H231.196V35.22H237.188ZM235.788 39.322V36.368H232.61V39.322H235.788ZM241.206 43.536H237.594C237.706 44.586 239.33 45.692 241.668 45.958L241.192 47.05C239.162 46.812 237.636 46.028 236.852 44.908C236.068 46.028 234.5 46.812 232.47 47.05L231.994 45.958C234.36 45.734 235.998 44.6 236.11 43.536H232.484V42.43H236.11V41.296H237.58V42.43H241.206V43.536ZM255.592 34.436H257.034V41.212H255.592V38.524H253.254C252.988 39.938 251.714 40.918 250.034 40.918C248.144 40.918 246.73 39.7 246.73 37.95C246.73 36.214 248.144 34.996 250.034 34.996C251.658 34.996 252.988 35.934 253.254 37.348H255.592V34.436ZM250.034 39.728C251.112 39.728 251.938 39.014 251.938 37.95C251.938 36.872 251.154 36.186 250.034 36.186C248.914 36.186 248.116 36.872 248.116 37.95C248.116 39.014 248.914 39.728 250.034 39.728ZM255.606 43.242V41.814H257.034V46.924H248.816V41.814H250.244V43.242H255.606ZM255.606 45.762V44.362H250.244V45.762H255.606ZM260.505 39.602L260.001 38.482C262.353 38.258 263.935 37.264 264.159 36.144H260.491V34.982H269.829V36.144H266.133C266.315 37.264 267.953 38.258 270.305 38.482L269.787 39.602C267.561 39.378 265.825 38.44 265.153 37.166C264.467 38.468 262.759 39.364 260.505 39.602ZM265.853 40.624H270.865V41.786H259.427V40.624H264.411V38.93H265.853V40.624ZM265.125 42.654C267.925 42.654 269.479 43.452 269.479 44.866C269.479 46.28 267.925 47.078 265.125 47.078C262.339 47.078 260.771 46.28 260.771 44.866C260.771 43.452 262.339 42.654 265.125 42.654ZM265.125 45.972C266.987 45.972 268.023 45.608 268.023 44.866C268.023 44.138 266.987 43.76 265.125 43.76C263.263 43.76 262.241 44.138 262.241 44.866C262.241 45.608 263.263 45.972 265.125 45.972ZM285.404 34.828V39.952H276.92V34.828H278.348V36.298H283.976V34.828H285.404ZM283.976 38.818V37.404H278.348V38.818H283.976ZM275.436 41.016H286.902V42.178H282.002V44.432H280.56V42.178H275.436V41.016ZM278.278 43.382V45.664H285.628V46.84H276.836V43.382H278.278ZM296.953 37.236V36.032H289.673V34.87H298.423V38.314H291.157V39.63H298.703V40.792H289.701V37.236H296.953ZM299.781 41.912L299.795 43.074H296.953V47.092H295.511V43.074H292.585V47.092H291.143V43.074H288.315V41.912H299.781ZM313.327 34.436H314.769V47.078H313.327V34.436ZM305.053 35.766H311.045C311.045 39.532 309.533 42.724 305.193 44.824L304.423 43.676C307.741 42.066 309.323 39.854 309.561 36.942H305.053V35.766ZM318.366 40.078L317.82 38.93C320.214 38.636 321.838 37.488 321.95 36.186H318.268V35.024H327.606V36.186H323.896C324.008 37.488 325.688 38.636 328.04 38.93L327.508 40.078C325.31 39.798 323.602 38.79 322.916 37.39C322.244 38.79 320.55 39.798 318.366 40.078ZM317.204 40.848H328.67V42.01H323.77V44.39H322.328V42.01H317.204V40.848ZM320.046 43.228V45.664H327.396V46.84H318.604V43.228H320.046Z" fill="black"/>
<path d="M8.94616 72.89C8.94616 72.47 9.0115 72.134 9.14216 71.882C9.28216 71.6207 9.46883 71.434 9.70216 71.322C9.94483 71.21 10.2108 71.154 10.5002 71.154C10.7895 71.154 11.0508 71.21 11.2842 71.322C11.5175 71.434 11.7042 71.6207 11.8442 71.882C11.9842 72.134 12.0542 72.47 12.0542 72.89C12.0542 73.3007 11.9842 73.6367 11.8442 73.898C11.7042 74.15 11.5175 74.3367 11.2842 74.458C11.0508 74.57 10.7895 74.626 10.5002 74.626C10.2108 74.626 9.94483 74.57 9.70216 74.458C9.46883 74.3367 9.28216 74.15 9.14216 73.898C9.0115 73.6367 8.94616 73.3007 8.94616 72.89ZM32.13 66.436V72.918H30.674V66.436H32.13ZM29.4 71.504L28.7 72.638C27.244 72.148 26.18 71.196 25.606 69.95C25.032 71.308 23.954 72.358 22.428 72.876L21.714 71.728C23.716 71.056 24.85 69.432 24.85 67.724V66.772H26.32V67.724C26.32 69.348 27.454 70.902 29.4 71.504ZM25.284 77.832H32.508V78.966H23.87V75.676H30.702V74.64H23.842V73.52H32.13V76.726H25.284V77.832ZM43.6229 66.422H45.0649V73.982H43.6229V70.79H41.4109V69.6H43.6229V66.422ZM42.1109 72.428L41.3969 73.548C39.9969 73.058 38.9889 72.078 38.4429 70.846C37.8829 72.204 36.8329 73.296 35.3209 73.814L34.5789 72.68C36.5389 72.008 37.6869 70.342 37.6869 68.634V68.382H35.0129V67.22H41.7749V68.382H39.1429V68.62C39.1429 70.188 40.2069 71.756 42.1109 72.428ZM36.5389 75.774V74.612H45.0649V79.078H43.6229V75.774H36.5389ZM51.6947 73.884L51.0927 72.736C53.5567 72.33 55.5587 70.608 55.5587 68.69V68.662H51.5407V67.5H61.0887V68.662H57.0707V68.69C57.0707 70.608 59.0867 72.288 61.5927 72.694L61.0047 73.842C58.8627 73.436 57.1547 72.302 56.3147 70.664C55.4747 72.302 53.7667 73.478 51.6947 73.884ZM57.0567 76.348H62.0547V77.524H50.6027V76.348H55.6007V73.394H57.0567V76.348ZM70.0196 70.23H72.5116V66.436H73.9536V75.746H72.5116V71.42H70.0196V70.23ZM64.2936 67.402H70.0896C70.0896 70.748 67.8496 73.198 64.2656 74.388L63.6356 73.24C66.4356 72.344 68.2696 70.608 68.5356 68.578H64.2936V67.402ZM67.2896 77.664H74.2756V78.84H65.8476V74.808H67.2896V77.664ZM89.9073 66.422V73.646H88.4513V66.422H89.9073ZM86.1273 67.22V72.47H80.1353V67.22H86.1273ZM84.7273 71.322V68.368H81.5493V71.322H84.7273ZM90.1453 75.536H86.5333C86.6453 76.586 88.2693 77.692 90.6073 77.958L90.1313 79.05C88.1013 78.812 86.5753 78.028 85.7913 76.908C85.0073 78.028 83.4393 78.812 81.4093 79.05L80.9333 77.958C83.2993 77.734 84.9373 76.6 85.0493 75.536H81.4233V74.43H85.0493V73.296H86.5193V74.43H90.1453V75.536ZM104.531 66.422H105.973V73.982H104.531V70.79H102.319V69.6H104.531V66.422ZM103.019 72.428L102.305 73.548C100.905 73.058 99.8971 72.078 99.3511 70.846C98.7911 72.204 97.7411 73.296 96.2291 73.814L95.4871 72.68C97.4471 72.008 98.5951 70.342 98.5951 68.634V68.382H95.9211V67.22H102.683V68.382H100.051V68.62C100.051 70.188 101.115 71.756 103.019 72.428ZM97.4471 75.774V74.612H105.973V79.078H104.531V75.774H97.4471ZM117.354 66.436H118.796V73.422H117.354V66.436ZM116.038 71.63L116.206 72.806C114.232 73.142 112.51 73.184 110.088 73.184H109.024V69.516H113.364V68.2H108.996V67.024H114.778V70.608H110.452V72.008C112.636 72.008 114.204 71.924 116.038 71.63ZM117.368 75.312V74.01H118.796V78.924H110.508V74.01H111.95V75.312H117.368ZM117.368 77.762V76.446H111.95V77.762H117.368ZM120.713 79.82L124.605 66.128H125.725L121.833 79.82H120.713ZM134.19 67.5V68.592H126.728V67.5H129.738V66.31H131.18V67.5H134.19ZM136.584 69.292H138.376V70.482H136.584V73.338H135.142V66.408H136.584V69.292ZM133.518 71.112C133.518 72.4 132.314 73.17 130.452 73.17C128.604 73.17 127.386 72.4 127.386 71.112C127.386 69.824 128.604 69.026 130.452 69.026C132.314 69.026 133.518 69.824 133.518 71.112ZM128.772 71.112C128.772 71.77 129.43 72.134 130.452 72.134C131.516 72.134 132.146 71.77 132.146 71.112C132.146 70.454 131.516 70.076 130.452 70.076C129.43 70.076 128.772 70.454 128.772 71.112ZM129.864 76.894V77.888H137.004V78.966H128.45V75.886H135.156V74.976H128.422V73.912H136.584V76.894H129.864ZM150.009 66.436V75.62H148.567V66.436H150.009ZM146.537 70.44C146.537 72.274 145.095 73.604 143.191 73.604C141.287 73.604 139.831 72.274 139.831 70.44C139.831 68.578 141.287 67.276 143.191 67.276C145.095 67.276 146.537 68.578 146.537 70.44ZM141.245 70.44C141.245 71.588 142.071 72.358 143.191 72.358C144.297 72.358 145.137 71.588 145.137 70.44C145.137 69.264 144.297 68.522 143.191 68.522C142.071 68.522 141.245 69.264 141.245 70.44ZM143.205 77.664H150.373V78.84H141.749V74.696H143.205V77.664ZM163.079 67.878V69.026H155.617V67.878H158.627V66.422H160.069V67.878H163.079ZM165.473 70.468H167.265V71.658H165.473V75.914H164.031V66.436H165.473V70.468ZM162.407 72.008C162.407 73.464 161.161 74.402 159.341 74.402C157.535 74.402 156.275 73.464 156.275 72.008C156.275 70.594 157.535 69.614 159.341 69.614C161.161 69.614 162.407 70.594 162.407 72.008ZM157.661 72.008C157.661 72.806 158.333 73.282 159.341 73.282C160.349 73.282 161.035 72.806 161.035 72.008C161.035 71.21 160.349 70.734 159.341 70.734C158.333 70.734 157.661 71.21 157.661 72.008ZM158.921 75.186V77.664H165.977V78.84H157.465V75.186H158.921ZM174.908 76.376H179.934V77.566H168.482V76.376H173.466V73.394H169.882V67.388H178.534V68.55H171.324V72.232H178.646V73.394H174.908V76.376ZM180.926 79.134L181.458 76.222H183.11L182.214 79.134H180.926ZM196.921 66.436H198.293V79.092H196.921V66.436ZM194.541 70.622V66.688H195.899V78.49H194.541V74.724H192.931C192.497 75.732 191.629 76.334 190.509 76.32C188.955 76.32 187.849 75.102 187.849 73.366C187.849 71.588 188.955 70.37 190.509 70.37C192.077 70.37 193.183 71.588 193.183 73.366V73.562H194.541V71.784H192.973V70.622H194.541ZM193.589 68.494V69.656H187.471V68.494H189.809V66.758H191.237V68.494H193.589ZM190.509 75.116C191.349 75.116 191.909 74.43 191.909 73.366C191.909 72.288 191.349 71.588 190.509 71.588C189.669 71.588 189.109 72.288 189.109 73.366C189.109 74.43 189.669 75.116 190.509 75.116ZM209.702 66.436H211.074V74.122H209.702V70.818H208.302V74.038H206.958V66.674H208.302V69.642H209.702V66.436ZM206.174 72.05L206.328 73.226C204.872 73.492 203.682 73.534 201.708 73.534H200.854V67.332H205.782V68.494H202.254V69.824H205.642V70.944H202.254V72.358C203.85 72.358 204.942 72.274 206.174 72.05ZM202.492 75.9V74.738H211.074V79.092H209.632V75.9H202.492ZM225.796 66.422H227.168V79.064H225.796V66.422ZM223.248 70.874V66.674H224.606V78.462H223.248V72.05H221.386V70.874H223.248ZM220.224 68.998V69.908C220.224 72.036 221.022 74.262 222.8 75.27L221.96 76.32C220.77 75.606 219.986 74.374 219.538 72.904C219.09 74.542 218.292 75.844 217.06 76.628L216.192 75.564C217.984 74.444 218.824 72.162 218.824 69.908V68.998H216.598V67.808H222.31V68.998H220.224ZM238.213 66.422H239.669V79.092H238.213V66.422ZM234.069 73.24V75.158C235.203 75.088 236.337 75.004 237.457 74.836L237.555 75.886C234.755 76.404 231.759 76.446 229.505 76.446L229.323 75.256C230.289 75.256 231.437 75.256 232.613 75.214V73.24C231.003 72.974 229.911 71.812 229.911 70.258C229.911 68.466 231.367 67.22 233.341 67.22C235.315 67.22 236.785 68.466 236.785 70.258C236.785 71.812 235.665 72.974 234.069 73.24ZM231.325 70.258C231.325 71.35 232.179 72.05 233.341 72.05C234.517 72.05 235.371 71.35 235.371 70.258C235.371 69.152 234.517 68.452 233.341 68.452C232.165 68.452 231.325 69.138 231.325 70.258ZM256.981 71.42V72.624H255.063V79.064H253.621V66.422H255.063V71.42H256.981ZM245.893 67.766H251.758C251.758 71.434 250.191 74.682 246.061 76.768L245.263 75.662C248.329 74.08 250.023 71.84 250.317 68.942H245.893V67.766ZM266.149 70.804V73.674H264.791V66.674H266.149V69.628H267.479V66.436H268.851V74.08H267.479V70.804H266.149ZM263.601 67.528V73.044H258.659V67.528H263.601ZM262.257 71.952V68.634H260.003V71.952H262.257ZM264.637 74.346C267.269 74.346 268.921 75.242 268.921 76.712C268.921 78.182 267.269 79.078 264.637 79.078C262.019 79.078 260.353 78.182 260.353 76.712C260.353 75.242 262.019 74.346 264.637 74.346ZM264.637 77.958C266.443 77.958 267.479 77.51 267.479 76.712C267.479 75.914 266.443 75.466 264.637 75.466C262.831 75.466 261.795 75.914 261.795 76.712C261.795 77.51 262.831 77.958 264.637 77.958ZM280.064 66.422H281.506V73.786H280.064V70.678H277.824V69.502H280.064V66.422ZM278.538 72.344L277.838 73.464C276.438 72.974 275.43 71.994 274.884 70.762C274.324 72.12 273.274 73.226 271.762 73.744L271.02 72.61C272.98 71.938 274.128 70.244 274.128 68.536V68.326H271.454V67.164H278.216V68.326H275.584V68.536C275.584 70.104 276.662 71.672 278.538 72.344ZM273.204 78.924V74.36H281.506V78.924H273.204ZM274.618 75.508V77.776H280.092V75.508H274.618ZM296.032 66.436H297.474V79.078H296.032V66.436ZM287.758 67.766H293.75C293.75 71.532 292.238 74.724 287.898 76.824L287.128 75.676C290.446 74.066 292.028 71.854 292.266 68.942H287.758V67.766ZM301.071 72.078L300.525 70.93C302.919 70.636 304.543 69.488 304.655 68.186H300.973V67.024H310.311V68.186H306.601C306.713 69.488 308.393 70.636 310.745 70.93L310.213 72.078C308.015 71.798 306.307 70.79 305.621 69.39C304.949 70.79 303.255 71.798 301.071 72.078ZM299.909 72.848H311.375V74.01H306.475V76.39H305.033V74.01H299.909V72.848ZM302.751 75.228V77.664H310.101V78.84H301.309V75.228H302.751ZM326.055 70.132V71.294H317.361V66.87H325.971V68.032H318.789V70.132H326.055ZM315.947 72.344H327.371V73.534H315.947V72.344ZM321.617 74.472C324.333 74.472 325.971 75.312 325.971 76.768C325.971 78.238 324.403 79.078 321.617 79.078C318.915 79.078 317.263 78.238 317.263 76.768C317.263 75.312 318.915 74.472 321.617 74.472ZM321.617 77.958C323.479 77.958 324.515 77.552 324.515 76.768C324.515 75.984 323.479 75.578 321.617 75.578C319.755 75.578 318.733 75.984 318.733 76.768C318.733 77.552 319.755 77.958 321.617 77.958ZM343.703 71.42V72.61H341.729V79.078H340.287V66.436H341.729V71.42H343.703ZM336.367 68.886V70.104C336.367 72.05 337.613 74.318 339.531 75.214L338.733 76.348C337.319 75.676 336.241 74.318 335.667 72.68C335.107 74.444 334.001 75.956 332.531 76.67L331.705 75.522C333.651 74.584 334.925 72.19 334.925 70.104V68.886H332.167V67.696H339.041V68.886H336.367ZM354.243 66.436H355.615V79.078H354.243V66.436ZM351.667 70.86V66.674H353.025V78.49H351.667V72.036H349.805V70.86H351.667ZM348.699 67.598V69.81C348.699 71.868 349.469 73.968 351.163 75.06L350.351 76.18C349.175 75.466 348.447 74.248 348.013 72.834C347.565 74.416 346.753 75.718 345.521 76.46L344.639 75.368C346.431 74.29 347.299 72.036 347.299 69.88V67.598H348.699ZM365.176 67.878V69.026H357.714V67.878H360.724V66.422H362.166V67.878H365.176ZM367.57 70.468H369.362V71.658H367.57V75.914H366.128V66.436H367.57V70.468ZM364.504 72.008C364.504 73.464 363.258 74.402 361.438 74.402C359.632 74.402 358.372 73.464 358.372 72.008C358.372 70.594 359.632 69.614 361.438 69.614C363.258 69.614 364.504 70.594 364.504 72.008ZM359.758 72.008C359.758 72.806 360.43 73.282 361.438 73.282C362.446 73.282 363.132 72.806 363.132 72.008C363.132 71.21 362.446 70.734 361.438 70.734C360.43 70.734 359.758 71.21 359.758 72.008ZM361.018 75.186V77.664H368.074V78.84H359.562V75.186H361.018ZM383.09 66.436H384.462V79.078H383.09V72.652H381.592V78.448H380.234V66.688H381.592V71.462H383.09V66.436ZM375.712 67.892V74.654C376.832 74.612 378.022 74.542 379.422 74.276L379.576 75.508C377.882 75.83 376.454 75.886 375.11 75.886H374.27V67.892H375.712ZM395.283 72.582H398.013V73.73H386.575V72.582H389.291V70.902C388.339 70.496 387.793 69.866 387.793 69.026C387.793 67.528 389.543 66.646 392.301 66.646C395.059 66.646 396.809 67.528 396.809 69.026C396.809 69.866 396.249 70.482 395.283 70.916V72.582ZM392.301 67.766C390.383 67.766 389.277 68.186 389.277 69.026C389.277 69.866 390.383 70.3 392.301 70.3C394.219 70.3 395.311 69.866 395.311 69.026C395.311 68.186 394.219 67.766 392.301 67.766ZM390.733 71.294V72.582H393.841V71.294C393.379 71.364 392.861 71.406 392.301 71.406C391.741 71.406 391.195 71.364 390.733 71.294ZM392.273 74.542C395.073 74.542 396.627 75.354 396.627 76.81C396.627 78.266 395.073 79.078 392.273 79.078C389.557 79.078 387.919 78.266 387.919 76.81C387.919 75.354 389.487 74.542 392.273 74.542ZM392.273 77.972C394.135 77.972 395.171 77.594 395.171 76.81C395.171 76.026 394.135 75.648 392.273 75.648C390.411 75.648 389.389 76.026 389.389 76.81C389.389 77.594 390.411 77.972 392.273 77.972ZM405.18 71.966C402.45 71.966 400.672 71 400.672 69.39C400.672 67.78 402.45 66.828 405.18 66.828C407.91 66.828 409.688 67.78 409.688 69.39C409.688 71 407.91 71.966 405.18 71.966ZM405.18 67.99C403.318 67.99 402.156 68.494 402.156 69.39C402.156 70.286 403.318 70.804 405.18 70.804C407.042 70.804 408.19 70.286 408.19 69.39C408.19 68.494 407.042 67.99 405.18 67.99ZM399.454 72.988H410.892V74.164H399.454V72.988ZM402.352 75.158V77.664H409.618V78.84H400.896V75.158H402.352ZM427.182 71.42V72.624H425.264V79.064H423.822V66.422H425.264V71.42H427.182ZM416.248 67.696H422.002C422.002 71.476 420.896 74.78 416.304 77.09L415.52 75.97C417.76 74.85 419.062 73.576 419.804 71.994L415.8 72.386L415.604 71.14L420.238 70.846C420.406 70.23 420.518 69.572 420.574 68.872H416.248V67.696ZM438.521 72.4V73.562H429.757V67.542H438.423V68.718H431.199V72.4H438.521ZM428.357 76.264H439.823V77.454H428.357V76.264ZM454.236 69.558H456.028V70.748H454.236V74.024H452.794V66.422H454.236V69.558ZM451.716 72.218L450.96 73.352C449.602 72.862 448.608 71.896 448.062 70.706C447.502 72.106 446.466 73.156 445.01 73.702L444.24 72.554C446.228 71.882 447.306 70.16 447.306 68.326V67.08H448.762V68.438C448.762 70.076 449.84 71.574 451.716 72.218ZM450.162 74.332C452.794 74.332 454.376 75.2 454.376 76.698C454.376 78.196 452.794 79.078 450.162 79.078C447.558 79.078 445.948 78.196 445.948 76.698C445.948 75.2 447.558 74.332 450.162 74.332ZM450.162 77.944C451.968 77.944 452.948 77.538 452.948 76.698C452.948 75.914 451.968 75.466 450.162 75.466C448.356 75.466 447.376 75.914 447.376 76.698C447.376 77.538 448.356 77.944 450.162 77.944ZM460.045 70.286V67.962H458.253V66.8H467.619V67.962H465.841V70.286H467.549V71.448H458.323V70.286H460.045ZM464.399 70.286V67.962H461.487V70.286H464.399ZM468.669 73.618H463.671V74.906H467.283V78.924H458.603V74.906H462.229V73.618H457.231V72.456H468.669V73.618ZM465.869 77.776V76.054H460.031V77.776H465.869ZM476.522 71.56V72.554H470.698V66.996H472.126V68.648H475.108V66.996H476.522V68.144H479.14V66.436H480.596V72.988H479.14V71.56H476.522ZM479.14 69.25H476.522V70.44H479.14V69.25ZM475.108 71.406V69.754H472.126V71.406H475.108ZM473.806 77.79H481.016V78.924H472.378V75.648H479.168V74.682H472.364V73.548H480.596V76.712H473.806V77.79ZM496.004 69.558H497.796V70.748H496.004V74.024H494.562V66.422H496.004V69.558ZM493.484 72.218L492.728 73.352C491.37 72.862 490.376 71.896 489.83 70.706C489.27 72.106 488.234 73.156 486.778 73.702L486.008 72.554C487.996 71.882 489.074 70.16 489.074 68.326V67.08H490.53V68.438C490.53 70.076 491.608 71.574 493.484 72.218ZM491.93 74.332C494.562 74.332 496.144 75.2 496.144 76.698C496.144 78.196 494.562 79.078 491.93 79.078C489.326 79.078 487.716 78.196 487.716 76.698C487.716 75.2 489.326 74.332 491.93 74.332ZM491.93 77.944C493.736 77.944 494.716 77.538 494.716 76.698C494.716 75.914 493.736 75.466 491.93 75.466C490.124 75.466 489.144 75.914 489.144 76.698C489.144 77.538 490.124 77.944 491.93 77.944ZM508.435 66.436H509.807V79.078H508.435V66.436ZM505.859 70.86V66.674H507.217V78.49H505.859V72.036H503.997V70.86H505.859ZM502.891 67.598V69.81C502.891 71.868 503.661 73.968 505.355 75.06L504.543 76.18C503.367 75.466 502.639 74.248 502.205 72.834C501.757 74.416 500.945 75.718 499.713 76.46L498.831 75.368C500.623 74.29 501.491 72.036 501.491 69.88V67.598H502.891ZM521.384 66.436H522.77V79.078H521.384V66.436ZM518.906 71.154V66.716H520.264V78.448H518.906V72.428H517.408V71.154H518.906ZM516.82 69.124V74.71C517.226 74.668 517.618 74.626 517.996 74.57L518.094 75.62C516.106 75.998 513.53 76.068 511.92 76.068L511.752 74.878H512.914V69.124H512.004V67.962H517.758V69.124H516.82ZM514.23 69.124V74.85C514.664 74.836 515.07 74.836 515.504 74.794V69.124H514.23ZM533.717 66.422H535.173V79.106H533.717V66.422ZM528.439 67.36C530.329 67.36 531.701 69.096 531.701 71.812C531.701 74.556 530.329 76.278 528.439 76.278C526.577 76.278 525.191 74.556 525.191 71.812C525.191 69.096 526.577 67.36 528.439 67.36ZM528.439 68.662C527.319 68.662 526.577 69.838 526.577 71.812C526.577 73.842 527.319 74.99 528.439 74.99C529.559 74.99 530.315 73.842 530.315 71.812C530.315 69.838 529.559 68.662 528.439 68.662ZM546.596 66.436H548.052V79.078H546.596V66.436ZM542.312 68.886V70.09C542.312 72.204 543.614 74.36 545.588 75.214L544.79 76.348C543.32 75.69 542.2 74.332 541.598 72.694C541.038 74.444 539.904 75.97 538.42 76.67L537.594 75.522C539.554 74.64 540.856 72.232 540.856 70.09V68.886H538.042V67.696H545.126V68.886H542.312ZM559.11 68.592V67.738H551.956V66.744H560.538V69.53H553.398V70.426H560.762V71.434H551.984V68.592H559.11ZM550.514 72.232H561.98V73.296H550.514V72.232ZM553.3 76.978V77.944H560.958V78.938H551.872V76.04H559.152V75.144H551.844V74.15H560.58V76.978H553.3ZM572.964 73.044H577.948V74.206H566.51V73.044H571.508V72.008H567.98V66.786H576.59V67.892H569.422V68.844H576.282V69.922H569.422V70.902H576.674V72.008H572.964V73.044ZM572.222 74.99C575.064 74.99 576.576 75.676 576.576 77.02C576.576 78.364 575.064 79.078 572.222 79.078C569.408 79.078 567.868 78.364 567.868 77.02C567.868 75.676 569.408 74.99 572.222 74.99ZM572.222 78C574.168 78 575.134 77.678 575.134 77.02C575.134 76.376 574.168 76.054 572.222 76.054C570.29 76.054 569.324 76.376 569.324 77.02C569.324 77.678 570.29 78 572.222 78ZM588.811 66.436H590.183V79.078H588.811V72.862H587.467V78.49H586.123V66.702H587.467V71.672H588.811V66.436ZM583.211 66.8V68.494H585.577V69.656H579.389V68.494H581.783V66.8H583.211ZM582.497 70.37C584.107 70.37 585.241 71.56 585.241 73.31C585.241 75.046 584.107 76.25 582.497 76.25C580.887 76.25 579.753 75.046 579.753 73.31C579.753 71.56 580.887 70.37 582.497 70.37ZM582.497 75.046C583.351 75.046 583.953 74.374 583.953 73.31C583.953 72.246 583.351 71.56 582.497 71.56C581.643 71.56 581.041 72.246 581.041 73.31C581.041 74.374 581.643 75.046 582.497 75.046ZM602.861 67.5V68.55H595.637V67.5H598.535V66.324H599.991V67.5H602.861ZM607.061 70.174V71.364H605.325V74.99H603.883V66.45H605.325V70.174H607.061ZM603.211 73.156L603.323 74.164C600.649 74.64 597.681 74.668 595.483 74.668L595.315 73.52C596.267 73.52 597.359 73.534 598.535 73.492V72.652C597.079 72.498 596.239 71.84 596.239 70.832C596.239 69.656 597.429 68.942 599.249 68.942C601.069 68.942 602.259 69.656 602.259 70.832C602.259 71.84 601.391 72.484 599.991 72.652V73.436C601.111 73.38 602.189 73.31 603.211 73.156ZM597.597 70.832C597.597 71.392 598.241 71.728 599.249 71.728C600.257 71.728 600.901 71.392 600.901 70.832C600.901 70.258 600.257 69.908 599.249 69.908C598.241 69.908 597.597 70.258 597.597 70.832ZM596.883 76.698V75.55H605.325V79.092H603.883V76.698H596.883ZM618.722 66.436V75.62H617.28V66.436H618.722ZM615.25 70.44C615.25 72.274 613.808 73.604 611.904 73.604C610 73.604 608.544 72.274 608.544 70.44C608.544 68.578 610 67.276 611.904 67.276C613.808 67.276 615.25 68.578 615.25 70.44ZM609.958 70.44C609.958 71.588 610.784 72.358 611.904 72.358C613.01 72.358 613.85 71.588 613.85 70.44C613.85 69.264 613.01 68.522 611.904 68.522C610.784 68.522 609.958 69.264 609.958 70.44ZM611.918 77.664H619.086V78.84H610.462V74.696H611.918V77.664ZM636.02 71.42V72.624H634.102V79.064H632.66V66.422H634.102V71.42H636.02ZM624.932 67.766H630.798C630.798 71.434 629.23 74.682 625.1 76.768L624.302 75.662C627.368 74.08 629.062 71.84 629.356 68.942H624.932V67.766ZM647.33 69.796V70.958H638.692V66.674H640.134V69.796H647.33ZM637.194 72.232H648.632V73.408H637.194V72.232ZM642.878 74.388C645.664 74.388 647.232 75.214 647.232 76.726C647.232 78.196 645.594 79.05 642.878 79.05C640.176 79.05 638.524 78.196 638.524 76.726C638.524 75.228 640.176 74.388 642.878 74.388ZM642.878 77.93C644.74 77.93 645.776 77.51 645.776 76.726C645.776 75.928 644.74 75.522 642.878 75.522C641.016 75.522 639.994 75.928 639.994 76.726C639.994 77.51 641.016 77.93 642.878 77.93Z" fill="black"/>
</svg>
