<svg width="21" height="21" viewBox="0 0 21 21" fill="none" xmlns="http://www.w3.org/2000/svg">
<path fill-rule="evenodd" clip-rule="evenodd" d="M12.2695 8.77661C12.2695 10.7096 10.7025 12.2766 8.76953 12.2766C6.83653 12.2766 5.26953 10.7096 5.26953 8.77661C5.26953 6.84361 6.83653 5.27661 8.76953 5.27661C10.7025 5.27661 12.2695 6.84361 12.2695 8.77661ZM11.5825 13.5038C10.7595 13.9946 9.79743 14.2766 8.76953 14.2766C5.73197 14.2766 3.26953 11.8142 3.26953 8.77661C3.26953 5.73905 5.73197 3.27661 8.76953 3.27661C11.8071 3.27661 14.2695 5.73905 14.2695 8.77661C14.2695 10.0625 13.8283 11.2452 13.0889 12.1818L15.9766 15.0695C16.3672 15.46 16.3672 16.0932 15.9766 16.4837C15.5861 16.8742 14.9529 16.8742 14.5624 16.4837L11.5825 13.5038Z" fill="#7D7D7D"/>
</svg>
