<svg xmlns="http://www.w3.org/2000/svg" width="24" height="24" viewBox="0 0 24 24" fill="none">
  <path fill-rule="evenodd" clip-rule="evenodd" d="M15.7488 10.8744C15.7488 13.5664 13.5664 15.7488 10.8744 15.7488C8.18234 15.7488 6 13.5664 6 10.8744C6 8.18234 8.18234 6 10.8744 6C13.5664 6 15.7488 8.18234 15.7488 10.8744ZM14.6081 16.6474C13.533 17.3442 12.2509 17.7488 10.8744 17.7488C7.07777 17.7488 4 14.671 4 10.8744C4 7.07777 7.07777 4 10.8744 4C14.671 4 17.7488 7.07777 17.7488 10.8744C17.7488 12.5718 17.1336 14.1256 16.1139 15.3248L19.7056 18.9165C20.0961 19.307 20.0961 19.9402 19.7056 20.3307C19.3151 20.7212 18.6819 20.7212 18.2914 20.3307L14.6081 16.6474Z" fill="#7D7D7D"/>
</svg>