<svg width="39" height="16" viewBox="0 0 39 16" fill="none" xmlns="http://www.w3.org/2000/svg">
<path d="M7.55693 3.15291C7.23723 3.15291 6.93683 3.20336 6.65571 3.30425C6.3746 3.39955 6.12105 3.49763 5.89507 3.59853C5.66906 3.69942 5.47064 3.74987 5.29977 3.74987C5.12338 3.74987 4.92496 3.70223 4.70447 3.60694C4.48951 3.51164 4.25801 3.41916 4.00996 3.32949C3.76193 3.23419 3.49736 3.18656 3.21624 3.18656C2.68708 3.18656 2.17448 3.33509 1.6784 3.63217C1.18783 3.92363 0.785457 4.35804 0.471274 4.93536C0.157091 5.5071 0 6.21615 0 7.06254C0 7.85287 0.129532 8.6376 0.388594 9.41671C0.653169 10.1902 0.970109 10.846 1.33941 11.3841C1.6591 11.8382 1.97052 12.2277 2.27368 12.5528C2.57684 12.8779 2.92961 13.0405 3.33199 13.0405C3.59656 13.0405 3.82531 12.9956 4.01824 12.9059C4.21666 12.8163 4.42336 12.7266 4.63832 12.6369C4.85881 12.5472 5.13166 12.5024 5.45686 12.5024C5.79309 12.5024 6.06042 12.5472 6.25886 12.6369C6.45728 12.721 6.65019 12.8078 6.83761 12.8975C7.02502 12.9816 7.26479 13.0237 7.55693 13.0237C7.99237 13.0237 8.36443 12.8555 8.67311 12.5192C8.98729 12.1829 9.27942 11.8157 9.5495 11.4178C9.85818 10.9581 10.0787 10.5405 10.2109 10.165C10.3487 9.78946 10.4204 9.59047 10.4259 9.56805C10.4149 9.56244 10.3212 9.512 10.1448 9.41671C9.97392 9.32143 9.7755 9.17288 9.5495 8.97109C9.32902 8.76371 9.13336 8.49186 8.96248 8.15555C8.79711 7.81924 8.71443 7.41005 8.71443 6.928C8.71443 6.50762 8.78059 6.14609 8.91287 5.8434C9.04516 5.53512 9.19949 5.28289 9.37588 5.0867C9.55226 4.88491 9.71211 4.73357 9.85542 4.63268C9.99872 4.52618 10.0787 4.46453 10.0952 4.44771C9.80857 4.02733 9.48887 3.72744 9.1361 3.54808C8.78885 3.36311 8.46915 3.25102 8.17703 3.21177C7.88489 3.17253 7.67819 3.15291 7.55693 3.15291ZM7.10218 2.08514C7.30062 1.8385 7.46321 1.55824 7.59 1.24435C7.71676 0.924855 7.78015 0.596952 7.78015 0.260642C7.78015 0.159748 7.77189 0.0728674 7.75535 0C7.43566 0.0112103 7.09942 0.109301 6.74667 0.294272C6.3939 0.479244 6.10177 0.711858 5.87026 0.992118C5.68837 1.19951 5.52575 1.46295 5.38245 1.78245C5.23914 2.09634 5.16748 2.42144 5.16748 2.75775C5.16748 2.8082 5.17024 2.85583 5.17575 2.90068C5.18127 2.94552 5.18677 2.97636 5.19229 2.99316C5.2474 3.00438 5.30527 3.00998 5.3659 3.00998C5.65804 3.00998 5.96672 2.9231 6.29192 2.74934C6.61713 2.56997 6.88722 2.34857 7.10218 2.08514Z" fill="black"/>
<path d="M13.2619 8.93759H16.8419C17.6522 8.93759 18.3605 8.76943 18.9668 8.43312C19.5731 8.09121 20.0471 7.61758 20.3888 7.01221C20.7305 6.40125 20.9014 5.69218 20.9014 4.88503V4.86823C20.9014 4.05548 20.7305 3.34641 20.3888 2.74105C20.0471 2.13008 19.5731 1.65645 18.9668 1.32014C18.3605 0.983829 17.6522 0.815674 16.8419 0.815674H13.2619V2.58131H16.321C17.0872 2.58131 17.6824 2.78029 18.107 3.17827C18.5313 3.57622 18.7435 4.14236 18.7435 4.87664V4.89344C18.7435 5.62212 18.5313 6.18824 18.107 6.59182C17.6824 6.98979 17.0872 7.18877 16.321 7.18877H13.2619V8.93759ZM12.1953 12.9481H14.3202V0.815674H12.1953V12.9481Z" fill="black"/>
<path d="M24.5229 13.0992C24.9142 13.0992 25.2781 13.0404 25.6144 12.9227C25.9505 12.7994 26.251 12.6284 26.5155 12.4098C26.7801 12.1856 26.9951 11.9194 27.1604 11.6111H27.2349V12.9479H29.2854V6.76818C29.2854 6.15722 29.1393 5.62752 28.8471 5.17911C28.5549 4.72509 28.1388 4.37757 27.5986 4.13653C27.064 3.88992 26.4218 3.7666 25.6722 3.7666C24.9392 3.7666 24.3024 3.88432 23.7622 4.11973C23.2276 4.34954 22.8033 4.66624 22.4891 5.06981C22.1748 5.47339 21.993 5.93861 21.9433 6.4655L21.935 6.55799H23.8533L23.8698 6.49072C23.947 6.17123 24.1316 5.91619 24.4237 5.72562C24.7214 5.52943 25.11 5.43133 25.5894 5.43133C26.1242 5.43133 26.5321 5.55746 26.8132 5.80969C27.0942 6.06193 27.2349 6.41506 27.2349 6.86908V9.62682C27.2349 9.97995 27.1438 10.2994 26.962 10.5853C26.7801 10.8656 26.5292 11.0898 26.2096 11.2579C25.8955 11.4205 25.5372 11.5018 25.1348 11.5018C24.6829 11.5018 24.3163 11.3953 24.0351 11.1823C23.754 10.9693 23.6135 10.675 23.6135 10.2994V10.2826C23.6135 9.9239 23.7485 9.63804 24.0185 9.42503C24.2942 9.21204 24.6966 9.08872 25.2257 9.0551L28.2849 8.86172V7.47442L24.9364 7.68462C24.2198 7.72947 23.6107 7.86399 23.1091 8.0882C22.6076 8.30681 22.2244 8.60949 21.9598 8.99624C21.7008 9.37739 21.5713 9.83702 21.5713 10.3751V10.3919C21.5713 10.93 21.6952 11.4037 21.9433 11.8128C22.1969 12.2164 22.5441 12.5331 22.985 12.7629C23.4316 12.9871 23.9442 13.0992 24.5229 13.0992Z" fill="black"/>
<path d="M32.2036 16.0001C32.8319 16.0001 33.3721 15.9104 33.8241 15.7311C34.2761 15.5573 34.6619 15.2658 34.9817 14.8567C35.3067 14.4531 35.5852 13.9066 35.8167 13.2171L38.9998 3.94336H36.8337L34.5848 11.6953L34.9817 11.09H34.4525L34.8411 11.6953L32.6004 3.94336H30.3599L33.5347 12.9565L33.4108 13.3433C33.2895 13.73 33.1075 13.9991 32.865 14.1504C32.6225 14.3017 32.3001 14.3774 31.8977 14.3774C31.7653 14.3774 31.6414 14.3718 31.5256 14.3606C31.4099 14.3494 31.3134 14.3382 31.2362 14.327V15.9245C31.363 15.9413 31.5119 15.9581 31.6827 15.9749C31.859 15.9917 32.0327 16.0001 32.2036 16.0001Z" fill="black"/>
</svg>
